<svg width="444" height="465" viewBox="0 0 444 465" fill="none" xmlns="http://www.w3.org/2000/svg">
<path d="M0 284.716H444C444 284.716 431.207 212.952 381.909 214.824C332.61 216.696 362.283 162.623 358.819 126.211C354.451 80.3446 238.194 28.0817 196.883 127.147C172.545 185.494 141.032 171.766 117.318 165.837C103.87 162.467 82.3725 176.758 85.8046 211.392C91.2649 266.525 73.0119 270.363 47.4266 264.747C21.8412 259.13 0 284.716 0 284.716Z" fill="url(#paint0_linear_116_8518)"/>
<path d="M134.168 18.6276V263.873C134.168 275.106 143.279 284.216 154.512 284.216H262.001C273.234 284.216 282.345 275.106 282.345 263.873V20.4997C282.345 9.26713 273.234 0.15625 262.001 0.15625H152.639C142.436 0.15625 134.168 8.42468 134.168 18.6276Z" fill="#888889"/>
<path d="M146.648 18.4714V263.717C146.648 274.949 155.759 284.06 166.992 284.06H274.482C285.714 284.06 294.825 274.949 294.825 263.717V20.3435C294.825 9.11088 285.714 0 274.482 0H165.12C154.917 0 146.648 8.26843 146.648 18.4714Z" fill="#A8ADAC"/>
<path d="M287.494 21.7168H153.67V260.098H287.494V21.7168Z" fill="white"/>
<path d="M323.281 41.0615H251.735C250.051 41.0615 248.646 42.4344 248.646 44.1505V74.9465C248.646 76.6626 250.019 78.0355 251.735 78.0355H256.01V87.1152L268.366 78.0355H323.25C324.966 78.0355 326.339 76.6626 326.339 74.9465V44.1505C326.339 42.4344 324.966 41.0615 323.281 41.0615Z" fill="#0C95BD"/>
<path d="M314.42 50.6406H259.941V52.3567H314.42V50.6406Z" fill="white"/>
<path d="M314.701 58.1602H260.223V59.8762H314.701V58.1602Z" fill="white"/>
<path d="M314.701 65.7109H260.223V67.427H314.701V65.7109Z" fill="white"/>
<path d="M415.668 93.418H316.072V139.628H415.668V93.418Z" fill="url(#paint1_linear_116_8518)"/>
<path d="M359.879 119.877C359.723 120.158 359.567 120.438 359.411 120.751C359.286 121 359.13 121.219 359.005 121.468C358.943 121.562 358.88 121.687 358.818 121.78C355.947 126.336 350.986 130.953 343.248 134.885C335.698 131.047 330.768 126.523 327.866 122.061C327.679 121.78 327.492 121.499 327.336 121.187C327.304 121.125 327.273 121.062 327.242 121.031C327.086 120.75 326.899 120.47 326.774 120.158C322.811 112.638 324.527 105.649 328.989 102.903C337.819 97.5053 342.406 106.71 343.28 108.707C344.153 106.71 348.74 97.5053 357.539 102.903C361.907 105.618 363.623 112.482 359.879 119.877Z" fill="url(#paint2_linear_116_8518)"/>
<path d="M359.88 119.878C359.724 120.158 359.568 120.439 359.412 120.751H356.947L355.606 124.807L354.763 119.129L352.766 126.274L349.833 111.703L347.556 120.782H343.687L342.439 124.558L341.066 118.785L338.944 129.02L335.668 111.765L333.421 121.063H327.212C327.056 120.782 326.869 120.502 326.744 120.19H332.735L335.761 107.678L338.975 124.589L340.972 114.792L342.532 121.406L343.031 119.909H346.838L349.864 107.771L352.829 122.592L354.95 115.041L355.855 121.126L356.261 119.878H359.88Z" fill="white"/>
<path d="M405.246 108.551H371.361V110.111H405.246V108.551Z" fill="white"/>
<path d="M405.402 116.102H371.518V117.662H405.402V116.102Z" fill="white"/>
<path d="M405.402 123.621H371.518V125.181H405.402V123.621Z" fill="white"/>
<path d="M443.065 157.101H343.469V203.31H443.065V157.101Z" fill="url(#paint3_linear_116_8518)"/>
<path d="M380.412 180.627L380.381 180.595C380.35 180.564 380.35 180.502 380.319 180.471L369.835 161.438L359.351 180.471C359.32 180.502 359.32 180.564 359.289 180.595L359.258 180.627C358.353 182.311 357.854 184.215 357.854 186.243C357.854 192.858 363.22 198.224 369.835 198.224C376.45 198.224 381.817 192.858 381.817 186.243C381.785 184.215 381.286 182.311 380.412 180.627Z" fill="url(#paint4_linear_116_8518)"/>
<path d="M368.897 181.406H370.52V184.776H373.796V186.336H370.52V189.706H368.897V186.336H365.621V184.776H368.897V181.406Z" fill="white"/>
<path d="M432.612 172.14H398.727V173.856H432.612V172.14Z" fill="white"/>
<path d="M432.799 179.69H398.914V181.407H432.799V179.69Z" fill="white"/>
<path d="M432.799 187.21H398.914V188.926H432.799V187.21Z" fill="white"/>
<path d="M121.656 31.4824H22.0605V77.6922H121.656V31.4824Z" fill="url(#paint5_linear_116_8518)"/>
<path d="M111.235 46.5527H77.3496V48.2688H111.235V46.5527Z" fill="white"/>
<path d="M111.391 54.0723H77.5059V55.7884H111.391V54.0723Z" fill="white"/>
<path d="M111.391 61.5918H77.5059V63.3079H111.391V61.5918Z" fill="white"/>
<path d="M49.8306 74.3537C60.7731 74.3537 69.6437 65.4831 69.6437 54.5406C69.6437 43.5982 60.7731 34.7275 49.8306 34.7275C38.8882 34.7275 30.0176 43.5982 30.0176 54.5406C30.0176 65.4831 38.8882 74.3537 49.8306 74.3537Z" fill="url(#paint6_linear_116_8518)"/>
<path d="M62.1549 45.3048L55.4776 41.7478C55.7584 40.7806 56.1953 40.5309 56.1953 40.5309L54.5416 39.0957C52.8879 41.9663 53.2936 44.868 53.824 46.7401C54.448 48.9554 54.6353 50.7963 54.5105 52.3252L52.1391 49.1114C52.8568 48.9242 53.356 48.893 53.356 48.893L53.1064 46.9897C47.6149 47.2394 44.994 50.7963 44.994 50.7963C41.4058 55.3206 43.5587 61.0617 43.5587 61.0617C44.1515 62.4345 44.3387 63.745 44.3075 64.8682L41.9049 61.5609C42.2169 61.5297 42.5289 61.5297 42.8722 61.5297L42.4041 59.6264C42.4041 59.6264 38.8159 59.1584 35.9766 61.5297L37.4119 63.1834C37.4119 63.1834 37.5055 63.0274 37.7551 62.809L43.9955 68.6125L45.0251 69.6421C47.8956 67.2708 45.9923 61.7793 45.9923 61.7793C49.0813 61.5297 51.4839 60.344 51.4839 60.344C58.629 55.8198 56.2577 49.1426 56.2577 49.1426C56.2577 49.0802 56.2266 49.049 56.2266 48.9866C60.9692 49.8915 63.9021 46.7401 63.9021 46.7401L62.1549 45.3048ZM43.9642 66.99L38.7536 62.1849C39.1905 61.9977 39.752 61.8105 40.5008 61.7169L44.1515 66.2723C44.0891 66.5219 44.0266 66.7716 43.9642 66.99ZM45.462 59.876C45.3372 59.3768 45.2435 58.8775 45.1811 58.4095L49.0502 59.2519C47.1469 59.876 45.462 59.876 45.462 59.876ZM50.7351 58.4719L45.0875 57.1927C45.0875 56.5686 45.1187 55.9758 45.2123 55.4142L51.2966 58.0663C51.1406 58.2224 50.9535 58.3471 50.7351 58.4719ZM52.3264 57.2551L45.5243 54.3533C45.7427 53.7293 46.0236 53.1677 46.3668 52.6684L52.6072 56.9743C52.5135 57.0679 52.42 57.1615 52.3264 57.2551ZM53.3247 56.007L47.2092 51.67C47.5524 51.3268 47.958 51.0148 48.3325 50.7339L53.6367 55.4766C53.5431 55.6638 53.4183 55.851 53.3247 56.007ZM54.0112 54.6029L49.487 50.0787C49.8614 49.8915 50.2358 49.7355 50.579 49.6107L54.2295 53.9477C54.1671 54.1661 54.0736 54.3845 54.0112 54.6029ZM55.6025 46.8649C55.5401 46.5529 55.4777 46.2409 55.4465 45.9601L60.0643 46.7713C58.5042 47.1769 56.5698 46.9897 55.6025 46.8649ZM61.3749 46.1785L55.3216 44.9928C55.228 44.2127 55.2281 43.5575 55.2593 43.0271L61.6556 45.9288C61.562 46.0224 61.4685 46.0849 61.3749 46.1785Z" fill="white"/>
<path d="M101.469 105.056H1.87305V151.265H101.469V105.056Z" fill="url(#paint7_linear_116_8518)"/>
<path d="M91.047 120.126H57.1621V121.842H91.047V120.126Z" fill="white"/>
<path d="M29.6417 147.522C40.3946 147.522 49.1115 138.805 49.1115 128.052C49.1115 117.299 40.3946 108.582 29.6417 108.582C18.8888 108.582 10.1719 117.299 10.1719 128.052C10.1719 138.805 18.8888 147.522 29.6417 147.522Z" fill="url(#paint8_linear_116_8518)"/>
<path d="M28.6735 116.694H19.625V119.846H20.9355V138.816C20.9355 140.532 22.3396 141.936 24.0557 141.936C25.7718 141.936 27.1759 140.532 27.1759 138.816V119.846H28.6423V116.694H28.6735Z" fill="white"/>
<path d="M39.6891 116.694H30.6406V119.846H31.951V138.816C31.951 140.532 33.3551 141.936 35.0712 141.936C36.7873 141.936 38.1913 140.532 38.1913 138.816V119.846H39.6579V116.694H39.6891Z" fill="white"/>
<path d="M21.998 125.057H26.1167V138.536C26.1167 139.69 25.1806 140.595 24.0574 140.595C22.9029 140.595 21.998 139.659 21.998 138.536V125.057Z" fill="#E3356F"/>
<path d="M33.043 129.861H37.1617V138.535C37.1617 139.69 36.2256 140.595 35.1023 140.595C33.9478 140.595 33.043 139.659 33.043 138.535V129.861Z" fill="#0598C1"/>
<path d="M91.2033 127.646H57.3184V129.362H91.2033V127.646Z" fill="white"/>
<path d="M91.2033 135.196H57.3184V136.912H91.2033V135.196Z" fill="white"/>
<path d="M153.482 219.597V278.849C153.482 281.813 151.079 284.247 148.084 284.247H99.222C97.3187 284.247 95.6651 283.28 94.6978 281.782C94.1674 280.94 93.8242 279.941 93.8242 278.849V219.597C93.8242 210.767 101.001 203.591 109.831 203.591H111.016V196.664H137.039V203.591H137.507C146.305 203.591 153.482 210.767 153.482 219.597Z" fill="url(#paint9_linear_116_8518)"/>
<path d="M138.568 181.251V197.507H108.988V181.251C108.988 179.816 110.143 178.661 111.578 178.661H136.009C137.382 178.661 138.568 179.816 138.568 181.251Z" fill="#223A7A"/>
<path d="M127.834 220.159H93.8242V268.584H127.834V220.159Z" fill="#0598C1"/>
<path d="M113.481 178.661H111.578V197.507H113.481V178.661Z" fill="#0598C1"/>
<path d="M118.036 178.661H116.133V197.507H118.036V178.661Z" fill="#0598C1"/>
<path d="M122.561 178.661H120.658V197.507H122.561V178.661Z" fill="#0598C1"/>
<path d="M127.085 178.661H125.182V197.507H127.085V178.661Z" fill="#0598C1"/>
<path d="M131.64 178.661H129.736V197.507H131.64V178.661Z" fill="#0598C1"/>
<path d="M136.165 178.661H134.262V197.507H136.165V178.661Z" fill="#0598C1"/>
<path opacity="0.2" d="M153.481 219.597V278.849C153.481 281.814 151.079 284.247 148.083 284.247H99.2215C97.3182 284.247 95.6645 283.28 94.6973 281.782C131.983 267.866 135.727 226.15 133.231 196.695H137.007V203.622H137.475C146.305 203.591 153.481 210.767 153.481 219.597Z" fill="black"/>
<path d="M144.963 276.853C144.963 280.659 148.052 283.748 151.858 283.748H170.923C174.729 283.748 177.818 280.659 177.818 276.853C177.818 273.046 174.729 269.957 170.923 269.957H151.858C148.052 269.957 144.963 273.046 144.963 276.853Z" fill="#E3356F"/>
<path d="M144.963 276.853C144.963 280.659 148.052 283.748 151.858 283.748H161.188V269.957H151.858C148.052 269.957 144.963 273.046 144.963 276.853Z" fill="#0598C1"/>
<path d="M236.978 260.129H182.125C184.996 231.143 190.206 185.9 196.509 162.53L210.394 163.466L227.867 164.652L236.26 165.214C236.291 165.214 236.821 222.594 236.978 260.129Z" fill="url(#paint10_linear_116_8518)"/>
<path d="M220.409 61.9041C220.409 61.9041 229.52 59.5641 230.019 68.831C230.518 78.0979 228.053 88.2072 228.053 88.2072C228.053 88.2072 227.304 93.8235 230.3 98.8781C230.3 98.8781 214.512 98.1917 211.267 91.1402L209.457 64.4003L220.409 61.9041Z" fill="#0C2F3D"/>
<path d="M224.028 119.659L218.256 90.9218C218.256 90.9218 232.858 93.3868 225.027 66.5534C225.027 66.5534 219.13 61.5923 212.546 65.6485C205.962 69.7359 206.243 76.257 206.243 76.257L205.619 119.659H224.028Z" fill="#FFAAAD"/>
<path d="M224.683 65.5861C224.683 65.5861 222.436 69.4863 219.441 71.7328C216.914 73.6361 213.669 73.8234 212.545 74.6035C212.545 74.6035 210.424 87.6457 218.193 98.6911C218.193 98.6911 208.645 99.6896 200.97 91.3275C200.97 91.3275 202.405 93.5117 203.903 95.1966C203.903 95.1966 192.327 96.7254 197.007 69.9856C200.034 52.6687 220.876 59.0338 224.152 61.6235L224.683 65.5861Z" fill="#0C2F3D"/>
<path d="M307.025 118.691L294.95 125.961L288.242 126.273L285.028 129.924L280.972 134.541L275.293 127.958L280.223 124.12L285.714 119.846L288.647 117.225C290.488 115.633 292.735 116.507 292.735 116.507L290.395 119.377L295.917 119.159L303.343 116.788C305.528 117.256 307.025 118.691 307.025 118.691Z" fill="#FFA09F"/>
<path d="M205.963 110.798C205.963 110.798 217.539 117.693 227.586 108.863L231.892 167.928C231.892 167.928 219.099 173.669 207.305 167.928L205.963 110.798Z" fill="url(#paint11_linear_116_8518)"/>
<path opacity="0.1" d="M285.028 129.892L280.972 134.51L275.293 127.927L280.192 124.089L285.028 129.892Z" fill="black"/>
<path d="M210.424 163.466C210.237 169.176 209.956 175.229 209.551 181.563C207.897 206.774 205.338 235.823 203.061 260.129H174.137L184.621 196.54L189.426 167.397L189.457 167.273L180.034 171.079C173.95 173.513 167.709 167.959 169.488 161.625L183.841 112.826C184.402 110.891 185.9 109.362 187.834 108.738L202.967 103.871L205.775 103.028C205.775 103.028 210.674 122.623 210.674 132.14C210.643 135.821 211.08 142.186 210.424 163.466Z" fill="url(#paint12_linear_116_8518)"/>
<path d="M279.567 123.715L283.936 134.636L258.163 156.633C256.322 158.193 253.545 157.943 252.016 156.071L236.26 136.601L231.049 104.401C231.049 104.401 237.601 106.305 242.001 111.328L258.569 136.539L279.567 123.715Z" fill="url(#paint13_linear_116_8518)"/>
<path d="M248.926 260.128H232.421L228.209 180.72C228.115 175.104 228.021 169.737 227.897 164.651C226.867 126.117 220.377 103.246 220.377 103.246L232.265 104.588L235.978 115.384C240.689 126.835 239.004 138.629 239.004 138.629C236.633 152.763 239.004 162.561 239.004 162.561C243.841 181.968 247.054 225.338 248.926 260.128Z" fill="url(#paint14_linear_116_8518)"/>
<path d="M209.613 177.288H208.989C208.989 173.326 207.429 157.475 204.901 143.528C202.468 130.142 199.129 118.629 199.098 118.504L199.035 118.255L204.932 115.571L196.633 112.857L205.307 102.935L205.775 103.34L197.725 112.545L206.648 115.478L199.784 118.598C200.283 120.376 203.31 131.11 205.525 143.403C208.053 157.413 209.613 173.294 209.613 177.288Z" fill="#0C2F3D"/>
<path d="M228.833 175.26C228.177 158.067 229.8 119.752 229.956 116.195L223.435 114.884L230.33 109.861L220.439 103.808L220.751 103.277L231.423 109.83L224.932 114.572L230.58 115.727V116.008C230.549 116.413 228.77 157.381 229.457 175.291L228.833 175.26Z" fill="#0C2F3D"/>
<path d="M189.613 200.377L189.426 199.785C200.159 196.664 202.094 185.556 202.125 185.463L202.749 185.557C202.749 185.681 200.721 197.164 189.613 200.377Z" fill="#0C2F3D"/>
<path d="M242.905 197.944C233.575 195.198 231.766 185.464 231.734 185.37L232.358 185.245C232.39 185.339 234.137 194.668 243.092 197.32L242.905 197.944Z" fill="#0C2F3D"/>
<path d="M238.692 155.915L222.093 159.535L210.018 156.82L204.401 159.067L202.467 159.847L201.25 151.984H201.406L208.208 151.391L211.515 149.581C219.659 146.555 228.739 149.581 228.739 149.581C226.617 152.296 224.807 150.798 222.093 151.391C219.378 151.984 220.283 153.201 220.283 153.201L225.712 154.418L235.665 153.201C237.194 153.513 238.692 155.915 238.692 155.915Z" fill="#FFAAAD"/>
<path d="M237.819 127.459L236.82 127.428C237.07 118.254 234.293 111.234 228.864 107.178C224.745 104.089 220.471 103.746 220.408 103.746L220.471 102.747C220.658 102.747 225.026 103.121 229.394 106.335C233.419 109.331 238.131 115.415 237.819 127.459Z" fill="#123245"/>
<path opacity="0.1" d="M190.643 138.691L186.898 151.796L194.387 150.548L189.395 149.612L190.643 138.691Z" fill="black"/>
<path d="M237.196 131.515C239.195 131.515 240.815 129.895 240.815 127.896C240.815 125.897 239.195 124.276 237.196 124.276C235.197 124.276 233.576 125.897 233.576 127.896C233.576 129.895 235.197 131.515 237.196 131.515Z" fill="#A0A0A0"/>
<path d="M237.196 129.893C238.299 129.893 239.193 128.999 239.193 127.896C239.193 126.793 238.299 125.899 237.196 125.899C236.093 125.899 235.199 126.793 235.199 127.896C235.199 128.999 236.093 129.893 237.196 129.893Z" fill="#123245"/>
<path d="M199.035 145.494L202.249 144.558C203.684 144.121 204.557 142.655 204.214 141.188L201.656 130.268L200.72 130.486L203.278 141.407C203.497 142.374 202.935 143.341 201.999 143.622L198.785 144.558L199.035 145.494Z" fill="#A0A0A0"/>
<path d="M193.451 146.243L190.112 146.212C188.614 146.181 187.366 144.995 187.304 143.497L186.805 132.265L187.772 132.233L188.271 143.466C188.302 144.464 189.113 145.244 190.112 145.244L193.451 145.276V146.243Z" fill="#A0A0A0"/>
<path d="M199.971 144.682C200.096 145.15 199.815 145.649 199.347 145.805L198.536 146.024C198.068 146.148 197.568 145.868 197.412 145.4C197.288 144.932 197.568 144.432 198.036 144.276L198.848 144.058C199.316 143.933 199.815 144.214 199.971 144.682Z" fill="#123245"/>
<path d="M192.328 145.744C192.328 146.243 192.734 146.649 193.233 146.649H194.075C194.575 146.649 194.98 146.243 194.98 145.744C194.98 145.245 194.575 144.839 194.075 144.839H193.233C192.734 144.839 192.328 145.245 192.328 145.744Z" fill="#123245"/>
<path d="M200.252 126.523C198.63 123.809 196.477 122.405 193.981 122.436C193.762 115.072 195.697 109.456 199.628 106.211C202.686 103.652 205.931 103.403 205.962 103.403L205.931 102.904L205.9 102.404C205.744 102.404 202.343 102.654 199.035 105.4C196.102 107.833 192.701 112.763 192.982 122.498C191.297 122.748 189.8 123.621 188.739 124.963C187.304 126.742 186.586 129.269 186.555 132.514C186.555 132.732 186.711 132.888 186.929 132.888H187.584C187.772 132.888 187.928 132.732 187.959 132.514C187.99 125.088 191.953 123.965 193.638 123.84C198.193 123.497 200.096 129.3 200.502 130.767C200.564 130.954 200.751 131.079 200.939 131.016L201.594 130.86C201.812 130.829 201.906 130.611 201.875 130.423C201.719 129.706 201.219 128.115 200.252 126.523Z" fill="#0C2F3D"/>
<path opacity="0.1" d="M204.401 159.066L202.436 159.846L201.219 151.983H201.375L204.401 159.066Z" fill="black"/>
<path opacity="0.1" d="M194.387 165.525L184.621 196.54L189.426 167.366L194.387 165.525Z" fill="black"/>
<path d="M280.817 205.058C280.817 205.058 269.241 128.551 306.371 138.661C306.371 138.692 324.686 147.116 280.817 205.058Z" fill="url(#paint15_linear_116_8518)"/>
<path d="M290.363 205.058C290.363 205.058 308.055 162.873 333.952 175.791C333.952 175.822 342.689 185.931 290.363 205.058Z" fill="url(#paint16_linear_116_8518)"/>
<path d="M273.297 206.899C273.297 206.899 240.348 187.086 244.529 176.259C244.529 176.29 256.76 162.967 273.297 206.899Z" fill="url(#paint17_linear_116_8518)"/>
<path d="M267.836 222.281C267.836 222.281 242.063 207.866 240.659 217.476C240.659 217.476 239.786 225.37 267.836 222.281Z" fill="url(#paint18_linear_116_8518)"/>
<path d="M286.308 232.297C284.842 232.921 298.165 204.559 312.018 211.641C312.018 211.641 320.412 217.726 286.308 232.297Z" fill="url(#paint19_linear_116_8518)"/>
<path d="M280.191 240.222L279.068 240.191C279.255 235.604 277.789 231.641 274.762 228.365C265.901 218.849 246.275 218.194 246.088 218.194L246.119 217.07C246.93 217.102 266.4 217.757 275.573 227.585C278.818 231.08 280.378 235.323 280.191 240.222Z" fill="#0C2F3D"/>
<path d="M281.346 246.681L280.223 246.649C280.535 238.849 285.62 230.581 294.981 222.78C302.001 216.914 309.022 213.295 309.084 213.264L309.583 214.262C309.303 214.387 282.032 228.521 281.346 246.681Z" fill="#0C2F3D"/>
<path d="M281.971 243.716C280.161 232.453 281.44 221.938 285.809 212.546C289.303 205.026 294.732 198.193 301.971 192.202C314.265 182.062 327.744 177.85 327.869 177.818L328.212 178.879C328.087 178.91 314.795 183.06 302.658 193.076C291.519 202.281 279.069 218.505 283.094 243.529L281.971 243.716Z" fill="#0C2F3D"/>
<path d="M283.031 251.611C279.817 238.6 278.694 224.84 279.724 210.768C280.535 199.504 282.719 187.991 286.214 176.571C292.142 157.101 299.911 144.433 299.974 144.309L300.941 144.901C300.878 145.026 293.172 157.601 287.275 176.946C281.845 194.762 276.884 222.157 284.123 251.362L283.031 251.611Z" fill="#0C2F3D"/>
<path d="M281.097 247.367H279.974C280.161 220.44 271.768 203.342 264.716 193.732C257.04 183.31 249.24 179.223 249.146 179.192L249.646 178.193C249.958 178.349 257.727 182.437 265.559 193.014C272.766 202.749 281.284 220.097 281.097 247.367Z" fill="#0C2F3D"/>
<path d="M300.005 239.941L299.974 240.129L293.796 284.404H269.053V284.373L262.875 239.941H300.005Z" fill="url(#paint20_linear_116_8518)"/>
<path opacity="0.1" d="M299.974 240.129L293.796 284.404H269.053V284.373C288.991 269.614 296.947 250.613 299.974 240.129Z" fill="black"/>
<path d="M16.8569 364V347.08H20.6009V353.872H28.3529V347.08H32.1209V364H28.3529V356.968H20.6009V364H16.8569ZM41.44 364.264C39.328 364.264 37.68 363.696 36.496 362.56C35.312 361.424 34.72 359.88 34.72 357.928C34.72 356.664 34.968 355.56 35.464 354.616C35.976 353.672 36.68 352.936 37.576 352.408C38.488 351.864 39.552 351.592 40.768 351.592C41.968 351.592 42.968 351.848 43.768 352.36C44.584 352.872 45.192 353.592 45.592 354.52C46.008 355.432 46.216 356.496 46.216 357.712V358.552H37.696V356.752H43.576L43.168 357.088C43.168 356.08 42.96 355.32 42.544 354.808C42.144 354.28 41.56 354.016 40.792 354.016C39.944 354.016 39.288 354.328 38.824 354.952C38.376 355.576 38.152 356.472 38.152 357.64V358.024C38.152 359.208 38.44 360.088 39.016 360.664C39.608 361.24 40.456 361.528 41.56 361.528C42.216 361.528 42.832 361.448 43.408 361.288C44 361.112 44.56 360.84 45.088 360.472L46.096 362.872C45.488 363.32 44.784 363.664 43.984 363.904C43.2 364.144 42.352 364.264 41.44 364.264ZM48.5153 364V346.336H52.1393V364H48.5153ZM55.1013 369.184V355C55.1013 354.488 55.0853 353.968 55.0533 353.44C55.0213 352.896 54.9733 352.36 54.9093 351.832H58.3893L58.6773 354.208H58.4133C58.6533 353.408 59.1573 352.776 59.9253 352.312C60.6933 351.832 61.5733 351.592 62.5653 351.592C63.6213 351.592 64.5493 351.848 65.3493 352.36C66.1493 352.856 66.7733 353.576 67.2213 354.52C67.6853 355.464 67.9173 356.592 67.9173 357.904C67.9173 359.232 67.6853 360.368 67.2213 361.312C66.7733 362.256 66.1493 362.984 65.3493 363.496C64.5493 364.008 63.6213 364.264 62.5653 364.264C61.5893 364.264 60.7173 364.032 59.9493 363.568C59.1973 363.104 58.6933 362.488 58.4373 361.72H58.7253V369.184H55.1013ZM61.4613 361.528C62.3093 361.528 62.9893 361.232 63.5013 360.64C64.0133 360.048 64.2693 359.136 64.2693 357.904C64.2693 356.672 64.0133 355.768 63.5013 355.192C62.9893 354.616 62.3093 354.328 61.4613 354.328C60.6293 354.328 59.9493 354.616 59.4213 355.192C58.9093 355.768 58.6533 356.672 58.6533 357.904C58.6533 359.136 58.9093 360.048 59.4213 360.64C59.9493 361.232 60.6293 361.528 61.4613 361.528ZM77.0388 364V355C77.0388 354.488 77.0228 353.968 76.9908 353.44C76.9588 352.896 76.9108 352.36 76.8468 351.832H80.3268L80.5908 354.088H80.3028C80.6548 353.32 81.1748 352.712 81.8628 352.264C82.5508 351.816 83.3668 351.592 84.3108 351.592C85.2388 351.592 86.0148 351.816 86.6388 352.264C87.2788 352.696 87.7348 353.376 88.0068 354.304H87.6228C87.9748 353.472 88.5348 352.816 89.3028 352.336C90.0708 351.84 90.9428 351.592 91.9188 351.592C93.2948 351.592 94.3188 352 94.9908 352.816C95.6628 353.632 95.9988 354.912 95.9988 356.656V364H92.3748V356.776C92.3748 355.928 92.2388 355.32 91.9668 354.952C91.6948 354.584 91.2548 354.4 90.6468 354.4C89.9268 354.4 89.3588 354.656 88.9428 355.168C88.5268 355.68 88.3188 356.384 88.3188 357.28V364H84.6948V356.776C84.6948 355.928 84.5588 355.32 84.2868 354.952C84.0148 354.584 83.5748 354.4 82.9668 354.4C82.2468 354.4 81.6788 354.656 81.2628 355.168C80.8628 355.68 80.6628 356.384 80.6628 357.28V364H77.0388ZM98.906 364V351.832H102.53V364H98.906ZM98.762 349.84V346.456H102.65V349.84H98.762ZM105.492 364V346.336H109.116V364H105.492ZM112.078 364V346.336H115.702V364H112.078ZM118.664 364V351.832H122.288V364H118.664ZM118.52 349.84V346.456H122.408V349.84H118.52ZM131.01 364.264C129.714 364.264 128.586 364.008 127.626 363.496C126.682 362.968 125.946 362.232 125.418 361.288C124.906 360.344 124.65 359.216 124.65 357.904C124.65 356.608 124.906 355.488 125.418 354.544C125.946 353.6 126.682 352.872 127.626 352.36C128.586 351.848 129.714 351.592 131.01 351.592C132.306 351.592 133.434 351.848 134.394 352.36C135.354 352.872 136.09 353.6 136.602 354.544C137.13 355.488 137.394 356.608 137.394 357.904C137.394 359.216 137.13 360.344 136.602 361.288C136.09 362.232 135.354 362.968 134.394 363.496C133.434 364.008 132.306 364.264 131.01 364.264ZM131.01 361.528C131.842 361.528 132.498 361.232 132.978 360.64C133.474 360.048 133.722 359.136 133.722 357.904C133.722 356.672 133.474 355.768 132.978 355.192C132.498 354.616 131.842 354.328 131.01 354.328C130.178 354.328 129.514 354.616 129.018 355.192C128.538 355.768 128.298 356.672 128.298 357.904C128.298 359.136 128.538 360.048 129.018 360.64C129.514 361.232 130.178 361.528 131.01 361.528ZM139.734 364V355C139.734 354.488 139.718 353.968 139.686 353.44C139.654 352.896 139.606 352.36 139.542 351.832H143.022L143.286 354.088H142.998C143.398 353.288 143.966 352.672 144.702 352.24C145.438 351.808 146.294 351.592 147.27 351.592C148.694 351.592 149.758 352.008 150.462 352.84C151.182 353.656 151.542 354.928 151.542 356.656V364H147.918V356.824C147.918 355.944 147.758 355.32 147.438 354.952C147.118 354.584 146.638 354.4 145.998 354.4C145.198 354.4 144.558 354.656 144.078 355.168C143.598 355.664 143.358 356.336 143.358 357.184V364H139.734ZM158.941 364.264C157.853 364.264 156.861 364.144 155.965 363.904C155.069 363.664 154.309 363.328 153.685 362.896L154.621 360.496C155.245 360.88 155.933 361.184 156.685 361.408C157.453 361.632 158.213 361.744 158.965 361.744C159.669 361.744 160.189 361.632 160.525 361.408C160.861 361.184 161.029 360.88 161.029 360.496C161.029 360.176 160.917 359.928 160.693 359.752C160.485 359.576 160.157 359.448 159.709 359.368L157.237 358.912C156.197 358.704 155.405 358.32 154.861 357.76C154.317 357.2 154.045 356.472 154.045 355.576C154.045 354.792 154.253 354.104 154.669 353.512C155.101 352.904 155.717 352.432 156.517 352.096C157.317 351.76 158.253 351.592 159.325 351.592C160.237 351.592 161.101 351.704 161.917 351.928C162.733 352.152 163.429 352.496 164.005 352.96L163.021 355.288C162.525 354.92 161.949 354.624 161.293 354.4C160.653 354.176 160.037 354.064 159.445 354.064C158.677 354.064 158.125 354.192 157.789 354.448C157.453 354.688 157.285 355 157.285 355.384C157.285 355.672 157.381 355.912 157.573 356.104C157.781 356.296 158.093 356.44 158.509 356.536L161.005 356.992C162.077 357.184 162.893 357.544 163.453 358.072C164.013 358.6 164.293 359.328 164.293 360.256C164.293 361.104 164.069 361.824 163.621 362.416C163.173 363.008 162.541 363.464 161.725 363.784C160.925 364.104 159.997 364.264 158.941 364.264ZM179.08 364.264C177.784 364.264 176.656 364.008 175.696 363.496C174.752 362.968 174.016 362.232 173.488 361.288C172.976 360.344 172.72 359.216 172.72 357.904C172.72 356.608 172.976 355.488 173.488 354.544C174.016 353.6 174.752 352.872 175.696 352.36C176.656 351.848 177.784 351.592 179.08 351.592C180.376 351.592 181.504 351.848 182.464 352.36C183.424 352.872 184.16 353.6 184.672 354.544C185.2 355.488 185.464 356.608 185.464 357.904C185.464 359.216 185.2 360.344 184.672 361.288C184.16 362.232 183.424 362.968 182.464 363.496C181.504 364.008 180.376 364.264 179.08 364.264ZM179.08 361.528C179.912 361.528 180.568 361.232 181.048 360.64C181.544 360.048 181.792 359.136 181.792 357.904C181.792 356.672 181.544 355.768 181.048 355.192C180.568 354.616 179.912 354.328 179.08 354.328C178.248 354.328 177.584 354.616 177.088 355.192C176.608 355.768 176.368 356.672 176.368 357.904C176.368 359.136 176.608 360.048 177.088 360.64C177.584 361.232 178.248 361.528 179.08 361.528ZM188.599 364V354.544H186.295V351.832H189.631L188.599 352.768V351.016C188.599 349.432 189.007 348.24 189.823 347.44C190.655 346.64 191.895 346.24 193.543 346.24C193.911 346.24 194.303 346.264 194.719 346.312C195.151 346.36 195.527 346.456 195.847 346.6V349.384C195.623 349.304 195.367 349.248 195.079 349.216C194.791 349.168 194.511 349.144 194.239 349.144C193.871 349.144 193.527 349.208 193.207 349.336C192.903 349.464 192.655 349.68 192.463 349.984C192.287 350.272 192.199 350.664 192.199 351.16V352.432L191.695 351.832H195.271V354.544H192.223V364H188.599ZM203.718 369.184V355C203.718 354.488 203.702 353.968 203.67 353.44C203.638 352.896 203.59 352.36 203.526 351.832H207.006L207.294 354.208H207.03C207.27 353.408 207.774 352.776 208.542 352.312C209.31 351.832 210.19 351.592 211.182 351.592C212.238 351.592 213.166 351.848 213.966 352.36C214.766 352.856 215.39 353.576 215.838 354.52C216.302 355.464 216.534 356.592 216.534 357.904C216.534 359.232 216.302 360.368 215.838 361.312C215.39 362.256 214.766 362.984 213.966 363.496C213.166 364.008 212.238 364.264 211.182 364.264C210.206 364.264 209.334 364.032 208.566 363.568C207.814 363.104 207.31 362.488 207.054 361.72H207.342V369.184H203.718ZM210.078 361.528C210.926 361.528 211.606 361.232 212.118 360.64C212.63 360.048 212.886 359.136 212.886 357.904C212.886 356.672 212.63 355.768 212.118 355.192C211.606 354.616 210.926 354.328 210.078 354.328C209.246 354.328 208.566 354.616 208.038 355.192C207.526 355.768 207.27 356.672 207.27 357.904C207.27 359.136 207.526 360.048 208.038 360.64C208.566 361.232 209.246 361.528 210.078 361.528ZM225.003 364.264C222.891 364.264 221.243 363.696 220.059 362.56C218.875 361.424 218.283 359.88 218.283 357.928C218.283 356.664 218.531 355.56 219.027 354.616C219.539 353.672 220.243 352.936 221.139 352.408C222.051 351.864 223.115 351.592 224.331 351.592C225.531 351.592 226.531 351.848 227.331 352.36C228.147 352.872 228.755 353.592 229.155 354.52C229.571 355.432 229.779 356.496 229.779 357.712V358.552H221.259V356.752H227.139L226.731 357.088C226.731 356.08 226.523 355.32 226.107 354.808C225.707 354.28 225.123 354.016 224.355 354.016C223.507 354.016 222.851 354.328 222.387 354.952C221.939 355.576 221.715 356.472 221.715 357.64V358.024C221.715 359.208 222.003 360.088 222.579 360.664C223.171 361.24 224.019 361.528 225.123 361.528C225.779 361.528 226.395 361.448 226.971 361.288C227.563 361.112 228.123 360.84 228.651 360.472L229.659 362.872C229.051 363.32 228.347 363.664 227.547 363.904C226.763 364.144 225.915 364.264 225.003 364.264ZM237.838 364.264C236.542 364.264 235.414 364.008 234.454 363.496C233.51 362.968 232.774 362.232 232.246 361.288C231.734 360.344 231.478 359.216 231.478 357.904C231.478 356.608 231.734 355.488 232.246 354.544C232.774 353.6 233.51 352.872 234.454 352.36C235.414 351.848 236.542 351.592 237.838 351.592C239.134 351.592 240.262 351.848 241.222 352.36C242.182 352.872 242.918 353.6 243.43 354.544C243.958 355.488 244.222 356.608 244.222 357.904C244.222 359.216 243.958 360.344 243.43 361.288C242.918 362.232 242.182 362.968 241.222 363.496C240.262 364.008 239.134 364.264 237.838 364.264ZM237.838 361.528C238.67 361.528 239.326 361.232 239.806 360.64C240.302 360.048 240.55 359.136 240.55 357.904C240.55 356.672 240.302 355.768 239.806 355.192C239.326 354.616 238.67 354.328 237.838 354.328C237.006 354.328 236.342 354.616 235.846 355.192C235.366 355.768 235.126 356.672 235.126 357.904C235.126 359.136 235.366 360.048 235.846 360.64C236.342 361.232 237.006 361.528 237.838 361.528ZM246.562 369.184V355C246.562 354.488 246.546 353.968 246.514 353.44C246.482 352.896 246.434 352.36 246.37 351.832H249.85L250.138 354.208H249.874C250.114 353.408 250.618 352.776 251.386 352.312C252.154 351.832 253.034 351.592 254.026 351.592C255.082 351.592 256.01 351.848 256.81 352.36C257.61 352.856 258.234 353.576 258.682 354.52C259.146 355.464 259.378 356.592 259.378 357.904C259.378 359.232 259.146 360.368 258.682 361.312C258.234 362.256 257.61 362.984 256.81 363.496C256.01 364.008 255.082 364.264 254.026 364.264C253.05 364.264 252.178 364.032 251.41 363.568C250.658 363.104 250.154 362.488 249.898 361.72H250.186V369.184H246.562ZM252.922 361.528C253.77 361.528 254.45 361.232 254.962 360.64C255.474 360.048 255.73 359.136 255.73 357.904C255.73 356.672 255.474 355.768 254.962 355.192C254.45 354.616 253.77 354.328 252.922 354.328C252.09 354.328 251.41 354.616 250.882 355.192C250.37 355.768 250.114 356.672 250.114 357.904C250.114 359.136 250.37 360.048 250.882 360.64C251.41 361.232 252.09 361.528 252.922 361.528ZM261.726 364V346.336H265.35V364H261.726ZM274.432 364.264C272.32 364.264 270.672 363.696 269.488 362.56C268.304 361.424 267.712 359.88 267.712 357.928C267.712 356.664 267.96 355.56 268.456 354.616C268.968 353.672 269.672 352.936 270.568 352.408C271.48 351.864 272.544 351.592 273.76 351.592C274.96 351.592 275.96 351.848 276.76 352.36C277.576 352.872 278.184 353.592 278.584 354.52C279 355.432 279.208 356.496 279.208 357.712V358.552H270.688V356.752H276.568L276.16 357.088C276.16 356.08 275.952 355.32 275.536 354.808C275.136 354.28 274.552 354.016 273.784 354.016C272.936 354.016 272.28 354.328 271.816 354.952C271.368 355.576 271.144 356.472 271.144 357.64V358.024C271.144 359.208 271.432 360.088 272.008 360.664C272.6 361.24 273.448 361.528 274.552 361.528C275.208 361.528 275.824 361.448 276.4 361.288C276.992 361.112 277.552 360.84 278.08 360.472L279.088 362.872C278.48 363.32 277.776 363.664 276.976 363.904C276.192 364.144 275.344 364.264 274.432 364.264ZM294.401 364.264C292.289 364.264 290.641 363.696 289.457 362.56C288.273 361.424 287.681 359.88 287.681 357.928C287.681 356.664 287.929 355.56 288.425 354.616C288.937 353.672 289.641 352.936 290.537 352.408C291.449 351.864 292.513 351.592 293.729 351.592C294.929 351.592 295.929 351.848 296.729 352.36C297.545 352.872 298.153 353.592 298.553 354.52C298.969 355.432 299.177 356.496 299.177 357.712V358.552H290.657V356.752H296.537L296.129 357.088C296.129 356.08 295.921 355.32 295.505 354.808C295.105 354.28 294.521 354.016 293.753 354.016C292.905 354.016 292.249 354.328 291.785 354.952C291.337 355.576 291.113 356.472 291.113 357.64V358.024C291.113 359.208 291.401 360.088 291.977 360.664C292.569 361.24 293.417 361.528 294.521 361.528C295.177 361.528 295.793 361.448 296.369 361.288C296.961 361.112 297.521 360.84 298.049 360.472L299.057 362.872C298.449 363.32 297.745 363.664 296.945 363.904C296.161 364.144 295.313 364.264 294.401 364.264ZM304.793 364L299.537 351.832H303.353L306.833 360.664H306.041L309.641 351.832H313.217L307.913 364H304.793ZM320.323 364.264C318.211 364.264 316.563 363.696 315.379 362.56C314.195 361.424 313.603 359.88 313.603 357.928C313.603 356.664 313.851 355.56 314.347 354.616C314.859 353.672 315.563 352.936 316.459 352.408C317.371 351.864 318.435 351.592 319.651 351.592C320.851 351.592 321.851 351.848 322.651 352.36C323.467 352.872 324.075 353.592 324.475 354.52C324.891 355.432 325.099 356.496 325.099 357.712V358.552H316.579V356.752H322.459L322.051 357.088C322.051 356.08 321.843 355.32 321.427 354.808C321.027 354.28 320.443 354.016 319.675 354.016C318.827 354.016 318.171 354.328 317.707 354.952C317.259 355.576 317.035 356.472 317.035 357.64V358.024C317.035 359.208 317.323 360.088 317.899 360.664C318.491 361.24 319.339 361.528 320.443 361.528C321.099 361.528 321.715 361.448 322.291 361.288C322.883 361.112 323.443 360.84 323.971 360.472L324.979 362.872C324.371 363.32 323.667 363.664 322.867 363.904C322.083 364.144 321.235 364.264 320.323 364.264ZM327.374 364V355.048C327.374 354.52 327.358 353.984 327.326 353.44C327.31 352.896 327.27 352.36 327.206 351.832H330.686L331.094 355.384H330.542C330.702 354.52 330.958 353.808 331.31 353.248C331.678 352.688 332.126 352.272 332.654 352C333.198 351.728 333.814 351.592 334.502 351.592C334.806 351.592 335.046 351.608 335.222 351.64C335.398 351.656 335.574 351.696 335.75 351.76L335.726 354.952C335.39 354.808 335.102 354.72 334.862 354.688C334.638 354.64 334.35 354.616 333.998 354.616C333.326 354.616 332.766 354.744 332.318 355C331.886 355.256 331.558 355.632 331.334 356.128C331.126 356.624 331.022 357.224 331.022 357.928V364H327.374ZM337.872 369.448L337.032 366.616C337.784 366.472 338.416 366.304 338.928 366.112C339.456 365.92 339.888 365.664 340.224 365.344C340.56 365.04 340.832 364.64 341.04 364.144L341.64 362.728L341.544 364.12L336.264 351.832H340.08L343.56 360.64H342.816L346.344 351.832H349.944L344.448 364.48C344.048 365.392 343.616 366.144 343.152 366.736C342.704 367.344 342.216 367.824 341.688 368.176C341.16 368.528 340.576 368.8 339.936 368.992C339.312 369.184 338.624 369.336 337.872 369.448ZM355.416 364L350.52 351.832H354.24L357.456 360.592H356.832L360.072 351.832H362.472L365.688 360.592H365.184L368.352 351.832H371.856L366.984 364H363.864L360.408 355.024H361.872L358.536 364H355.416ZM373.359 364V346.336H376.983V354.112H376.623C377.007 353.296 377.575 352.672 378.327 352.24C379.079 351.808 379.943 351.592 380.919 351.592C382.343 351.592 383.407 352.008 384.111 352.84C384.815 353.656 385.167 354.912 385.167 356.608V364H381.543V356.776C381.543 355.928 381.383 355.32 381.063 354.952C380.759 354.584 380.279 354.4 379.623 354.4C378.823 354.4 378.183 354.648 377.703 355.144C377.223 355.64 376.983 356.304 376.983 357.136V364H373.359ZM394.198 364.264C392.086 364.264 390.438 363.696 389.254 362.56C388.07 361.424 387.478 359.88 387.478 357.928C387.478 356.664 387.726 355.56 388.222 354.616C388.734 353.672 389.438 352.936 390.334 352.408C391.246 351.864 392.31 351.592 393.526 351.592C394.726 351.592 395.726 351.848 396.526 352.36C397.342 352.872 397.95 353.592 398.35 354.52C398.766 355.432 398.974 356.496 398.974 357.712V358.552H390.454V356.752H396.334L395.926 357.088C395.926 356.08 395.718 355.32 395.302 354.808C394.902 354.28 394.318 354.016 393.55 354.016C392.702 354.016 392.046 354.328 391.582 354.952C391.134 355.576 390.91 356.472 390.91 357.64V358.024C390.91 359.208 391.198 360.088 391.774 360.664C392.366 361.24 393.214 361.528 394.318 361.528C394.974 361.528 395.59 361.448 396.166 361.288C396.758 361.112 397.318 360.84 397.846 360.472L398.854 362.872C398.246 363.32 397.542 363.664 396.742 363.904C395.958 364.144 395.11 364.264 394.198 364.264ZM401.249 364V355.048C401.249 354.52 401.233 353.984 401.201 353.44C401.185 352.896 401.145 352.36 401.081 351.832H404.561L404.969 355.384H404.417C404.577 354.52 404.833 353.808 405.185 353.248C405.553 352.688 406.001 352.272 406.529 352C407.073 351.728 407.689 351.592 408.377 351.592C408.681 351.592 408.921 351.608 409.097 351.64C409.273 351.656 409.449 351.696 409.625 351.76L409.601 354.952C409.265 354.808 408.977 354.72 408.737 354.688C408.513 354.64 408.225 354.616 407.873 354.616C407.201 354.616 406.641 354.744 406.193 355C405.761 355.256 405.433 355.632 405.209 356.128C405.001 356.624 404.897 357.224 404.897 357.928V364H401.249ZM417.049 364.264C414.937 364.264 413.289 363.696 412.105 362.56C410.921 361.424 410.329 359.88 410.329 357.928C410.329 356.664 410.577 355.56 411.073 354.616C411.585 353.672 412.289 352.936 413.185 352.408C414.097 351.864 415.161 351.592 416.377 351.592C417.577 351.592 418.577 351.848 419.377 352.36C420.193 352.872 420.801 353.592 421.201 354.52C421.617 355.432 421.825 356.496 421.825 357.712V358.552H413.305V356.752H419.185L418.777 357.088C418.777 356.08 418.569 355.32 418.153 354.808C417.753 354.28 417.169 354.016 416.401 354.016C415.553 354.016 414.897 354.328 414.433 354.952C413.985 355.576 413.761 356.472 413.761 357.64V358.024C413.761 359.208 414.049 360.088 414.625 360.664C415.217 361.24 416.065 361.528 417.169 361.528C417.825 361.528 418.441 361.448 419.017 361.288C419.609 361.112 420.169 360.84 420.697 360.472L421.705 362.872C421.097 363.32 420.393 363.664 419.593 363.904C418.809 364.144 417.961 364.264 417.049 364.264ZM425.541 367.456L424.125 366.328C424.685 365.768 425.085 365.24 425.325 364.744C425.565 364.248 425.685 363.712 425.685 363.136L426.453 364H423.813V360.16H427.701V362.632C427.701 363.544 427.541 364.376 427.221 365.128C426.901 365.88 426.341 366.656 425.541 367.456ZM169.186 400.264C167.074 400.264 165.426 399.696 164.242 398.56C163.058 397.424 162.466 395.88 162.466 393.928C162.466 392.664 162.714 391.56 163.21 390.616C163.722 389.672 164.426 388.936 165.322 388.408C166.234 387.864 167.298 387.592 168.514 387.592C169.714 387.592 170.714 387.848 171.514 388.36C172.33 388.872 172.938 389.592 173.338 390.52C173.754 391.432 173.962 392.496 173.962 393.712V394.552H165.442V392.752H171.322L170.914 393.088C170.914 392.08 170.706 391.32 170.29 390.808C169.89 390.28 169.306 390.016 168.538 390.016C167.69 390.016 167.034 390.328 166.57 390.952C166.122 391.576 165.898 392.472 165.898 393.64V394.024C165.898 395.208 166.186 396.088 166.762 396.664C167.354 397.24 168.202 397.528 169.306 397.528C169.962 397.528 170.578 397.448 171.154 397.288C171.746 397.112 172.306 396.84 172.834 396.472L173.842 398.872C173.234 399.32 172.53 399.664 171.73 399.904C170.946 400.144 170.098 400.264 169.186 400.264ZM179.579 400L174.322 387.832H178.139L181.618 396.664H180.827L184.427 387.832H188.003L182.699 400H179.579ZM195.108 400.264C192.996 400.264 191.348 399.696 190.164 398.56C188.98 397.424 188.388 395.88 188.388 393.928C188.388 392.664 188.636 391.56 189.132 390.616C189.644 389.672 190.348 388.936 191.244 388.408C192.156 387.864 193.22 387.592 194.436 387.592C195.636 387.592 196.636 387.848 197.436 388.36C198.252 388.872 198.86 389.592 199.26 390.52C199.676 391.432 199.884 392.496 199.884 393.712V394.552H191.364V392.752H197.244L196.836 393.088C196.836 392.08 196.628 391.32 196.212 390.808C195.812 390.28 195.228 390.016 194.46 390.016C193.612 390.016 192.956 390.328 192.492 390.952C192.044 391.576 191.82 392.472 191.82 393.64V394.024C191.82 395.208 192.108 396.088 192.684 396.664C193.276 397.24 194.124 397.528 195.228 397.528C195.884 397.528 196.5 397.448 197.076 397.288C197.668 397.112 198.228 396.84 198.756 396.472L199.764 398.872C199.156 399.32 198.452 399.664 197.652 399.904C196.868 400.144 196.02 400.264 195.108 400.264ZM202.159 400V391.048C202.159 390.52 202.143 389.984 202.111 389.44C202.095 388.896 202.055 388.36 201.991 387.832H205.471L205.879 391.384H205.327C205.487 390.52 205.743 389.808 206.095 389.248C206.463 388.688 206.911 388.272 207.439 388C207.983 387.728 208.599 387.592 209.287 387.592C209.591 387.592 209.831 387.608 210.007 387.64C210.183 387.656 210.359 387.696 210.535 387.76L210.511 390.952C210.175 390.808 209.887 390.72 209.647 390.688C209.423 390.64 209.135 390.616 208.783 390.616C208.111 390.616 207.551 390.744 207.103 391C206.671 391.256 206.343 391.632 206.119 392.128C205.911 392.624 205.807 393.224 205.807 393.928V400H202.159ZM212.657 405.448L211.817 402.616C212.569 402.472 213.201 402.304 213.713 402.112C214.241 401.92 214.673 401.664 215.009 401.344C215.345 401.04 215.617 400.64 215.825 400.144L216.425 398.728L216.329 400.12L211.049 387.832H214.865L218.345 396.64H217.601L221.129 387.832H224.729L219.233 400.48C218.833 401.392 218.401 402.144 217.937 402.736C217.489 403.344 217.001 403.824 216.473 404.176C215.945 404.528 215.361 404.8 214.721 404.992C214.097 405.184 213.409 405.336 212.657 405.448ZM238.434 400.264C236.85 400.264 235.658 399.872 234.858 399.088C234.058 398.288 233.658 397.096 233.658 395.512V390.544H231.354V387.832H233.658V384.856L237.282 383.968V387.832H240.402V390.544H237.282V395.32C237.282 396.088 237.442 396.616 237.762 396.904C238.082 397.192 238.49 397.336 238.986 397.336C239.29 397.336 239.538 397.32 239.73 397.288C239.938 397.24 240.154 397.176 240.378 397.096V399.904C240.074 400.032 239.754 400.12 239.418 400.168C239.082 400.232 238.754 400.264 238.434 400.264ZM242.261 400V387.832H245.885V400H242.261ZM242.117 385.84V382.456H246.005V385.84H242.117ZM248.847 400V391C248.847 390.488 248.831 389.968 248.799 389.44C248.767 388.896 248.719 388.36 248.655 387.832H252.135L252.399 390.088H252.111C252.463 389.32 252.983 388.712 253.671 388.264C254.359 387.816 255.175 387.592 256.119 387.592C257.047 387.592 257.823 387.816 258.447 388.264C259.087 388.696 259.543 389.376 259.815 390.304H259.431C259.783 389.472 260.343 388.816 261.111 388.336C261.879 387.84 262.751 387.592 263.727 387.592C265.103 387.592 266.127 388 266.799 388.816C267.471 389.632 267.807 390.912 267.807 392.656V400H264.183V392.776C264.183 391.928 264.047 391.32 263.775 390.952C263.503 390.584 263.063 390.4 262.455 390.4C261.735 390.4 261.167 390.656 260.751 391.168C260.335 391.68 260.127 392.384 260.127 393.28V400H256.503V392.776C256.503 391.928 256.367 391.32 256.095 390.952C255.823 390.584 255.383 390.4 254.775 390.4C254.055 390.4 253.487 390.656 253.071 391.168C252.671 391.68 252.471 392.384 252.471 393.28V400H248.847ZM276.835 400.264C274.723 400.264 273.075 399.696 271.891 398.56C270.707 397.424 270.115 395.88 270.115 393.928C270.115 392.664 270.363 391.56 270.859 390.616C271.371 389.672 272.075 388.936 272.971 388.408C273.883 387.864 274.947 387.592 276.163 387.592C277.363 387.592 278.363 387.848 279.163 388.36C279.979 388.872 280.587 389.592 280.987 390.52C281.403 391.432 281.611 392.496 281.611 393.712V394.552H273.091V392.752H278.971L278.563 393.088C278.563 392.08 278.355 391.32 277.939 390.808C277.539 390.28 276.955 390.016 276.187 390.016C275.339 390.016 274.683 390.328 274.219 390.952C273.771 391.576 273.547 392.472 273.547 393.64V394.024C273.547 395.208 273.835 396.088 274.411 396.664C275.003 397.24 275.851 397.528 276.955 397.528C277.611 397.528 278.227 397.448 278.803 397.288C279.395 397.112 279.955 396.84 280.483 396.472L281.491 398.872C280.883 399.32 280.179 399.664 279.379 399.904C278.595 400.144 277.747 400.264 276.835 400.264Z" fill="#1E1F20"/>
<rect x="203" y="461" width="11" height="4" rx="2" fill="#3093BB"/>
<rect x="216" y="461" width="12" height="4" rx="2" fill="#F0F0F0"/>
<rect x="230" y="461" width="11" height="4" rx="2" fill="#F0F0F0"/>
<defs>
<linearGradient id="paint0_linear_116_8518" x1="222.062" y1="295.16" x2="220.814" y2="84.237" gradientUnits="userSpaceOnUse">
<stop stop-color="#D3E9FE"/>
<stop offset="1" stop-color="#E9F6FF"/>
</linearGradient>
<linearGradient id="paint1_linear_116_8518" x1="413.542" y1="115.262" x2="319.936" y2="117.758" gradientUnits="userSpaceOnUse">
<stop stop-color="#E4EDFF"/>
<stop offset="1" stop-color="#C7D8FF"/>
</linearGradient>
<linearGradient id="paint2_linear_116_8518" x1="324.533" y1="118.071" x2="361.942" y2="118.071" gradientUnits="userSpaceOnUse">
<stop stop-color="#E3356F"/>
<stop offset="1" stop-color="#E882AC"/>
</linearGradient>
<linearGradient id="paint3_linear_116_8518" x1="437.418" y1="181.358" x2="342.564" y2="178.862" gradientUnits="userSpaceOnUse">
<stop stop-color="#E4EDFF"/>
<stop offset="1" stop-color="#C7D8FF"/>
</linearGradient>
<linearGradient id="paint4_linear_116_8518" x1="357.839" y1="179.833" x2="381.798" y2="179.833" gradientUnits="userSpaceOnUse">
<stop stop-color="#E3356F"/>
<stop offset="1" stop-color="#E882AC"/>
</linearGradient>
<linearGradient id="paint5_linear_116_8518" x1="22.0673" y1="54.5811" x2="121.669" y2="54.5811" gradientUnits="userSpaceOnUse">
<stop stop-color="#E4EDFF"/>
<stop offset="1" stop-color="#C7D8FF"/>
</linearGradient>
<linearGradient id="paint6_linear_116_8518" x1="30.0068" y1="54.5532" x2="69.6441" y2="54.5532" gradientUnits="userSpaceOnUse">
<stop stop-color="#E3356F"/>
<stop offset="1" stop-color="#E882AC"/>
</linearGradient>
<linearGradient id="paint7_linear_116_8518" x1="1.87305" y1="128.17" x2="101.475" y2="128.17" gradientUnits="userSpaceOnUse">
<stop stop-color="#E4EDFF"/>
<stop offset="1" stop-color="#C7D8FF"/>
</linearGradient>
<linearGradient id="paint8_linear_116_8518" x1="10.1919" y1="128.052" x2="49.106" y2="128.052" gradientUnits="userSpaceOnUse">
<stop stop-color="#E3356F"/>
<stop offset="1" stop-color="#E882AC"/>
</linearGradient>
<linearGradient id="paint9_linear_116_8518" x1="119.485" y1="288.517" x2="129.313" y2="194.916" gradientUnits="userSpaceOnUse">
<stop stop-color="#2B233C"/>
<stop offset="1" stop-color="#635C70"/>
</linearGradient>
<linearGradient id="paint10_linear_116_8518" x1="210.488" y1="162.665" x2="209.552" y2="260.96" gradientUnits="userSpaceOnUse">
<stop stop-color="#29056B"/>
<stop offset="1" stop-color="#6C93F5"/>
</linearGradient>
<linearGradient id="paint11_linear_116_8518" x1="218.939" y1="161.729" x2="218.939" y2="110.981" gradientUnits="userSpaceOnUse">
<stop stop-color="#E3356F"/>
<stop offset="1" stop-color="#E882AC"/>
</linearGradient>
<linearGradient id="paint12_linear_116_8518" x1="191.658" y1="124.398" x2="186.138" y2="243.081" gradientUnits="userSpaceOnUse">
<stop stop-color="#DCE9FF"/>
<stop offset="1" stop-color="#B6D2FF"/>
</linearGradient>
<linearGradient id="paint13_linear_116_8518" x1="268.901" y1="143.293" x2="230.582" y2="101.235" gradientUnits="userSpaceOnUse">
<stop stop-color="#DCE9FF"/>
<stop offset="1" stop-color="#B6D2FF"/>
</linearGradient>
<linearGradient id="paint14_linear_116_8518" x1="234.215" y1="125.28" x2="235.151" y2="248.849" gradientUnits="userSpaceOnUse">
<stop stop-color="#DCE9FF"/>
<stop offset="1" stop-color="#B6D2FF"/>
</linearGradient>
<linearGradient id="paint15_linear_116_8518" x1="280.78" y1="194.019" x2="303.964" y2="133.633" gradientUnits="userSpaceOnUse">
<stop stop-color="#1C59EB"/>
<stop offset="1" stop-color="#6AF2ED"/>
</linearGradient>
<linearGradient id="paint16_linear_116_8518" x1="290.368" y1="189.209" x2="334.492" y2="189.209" gradientUnits="userSpaceOnUse">
<stop stop-color="#1C59EB"/>
<stop offset="1" stop-color="#6AF2ED"/>
</linearGradient>
<linearGradient id="paint17_linear_116_8518" x1="273.125" y1="203.742" x2="244.114" y2="173.656" gradientUnits="userSpaceOnUse">
<stop stop-color="#1C59EB"/>
<stop offset="1" stop-color="#6AF2ED"/>
</linearGradient>
<linearGradient id="paint18_linear_116_8518" x1="263.786" y1="221.005" x2="237.866" y2="216.685" gradientUnits="userSpaceOnUse">
<stop stop-color="#1C59EB"/>
<stop offset="1" stop-color="#6AF2ED"/>
</linearGradient>
<linearGradient id="paint19_linear_116_8518" x1="286.196" y1="221.41" x2="312.93" y2="221.41" gradientUnits="userSpaceOnUse">
<stop stop-color="#1C59EB"/>
<stop offset="1" stop-color="#6AF2ED"/>
</linearGradient>
<linearGradient id="paint20_linear_116_8518" x1="262.866" y1="262.179" x2="299.999" y2="262.179" gradientUnits="userSpaceOnUse">
<stop stop-color="#E3356F"/>
<stop offset="1" stop-color="#E882AC"/>
</linearGradient>
</defs>
</svg>
