<svg width="40" height="40" viewBox="0 0 40 40" fill="none" xmlns="http://www.w3.org/2000/svg">
<path d="M36.3514 14.1133H3.64859C2.82823 14.1133 2.1622 14.7793 2.1622 15.5997V33.3781C2.1622 35.8368 4.16302 37.8376 6.62165 37.8376H33.3784C35.837 37.8376 37.8378 35.8368 37.8378 33.3781V15.5997C37.8378 14.7793 37.1718 14.1133 36.3514 14.1133Z" fill="url(#paint0_linear_690_7312)"/>
<path d="M33.3784 6.62109H6.62168C4.1587 6.62109 2.16223 8.60436 2.16223 11.0511V15.54H37.8378V11.0511C37.8378 8.60436 35.8414 6.62109 33.3784 6.62109Z" fill="url(#paint1_linear_690_7312)"/>
<path d="M10.8689 2.16211H9.38248C8.56185 2.16211 7.89581 2.82814 7.89581 3.6485V9.59462C7.89581 10.415 8.56185 11.081 9.38248 11.081H10.8689C11.6895 11.081 12.3553 10.415 12.3553 9.59462V3.6485C12.3553 2.82814 11.6895 2.16211 10.8689 2.16211Z" fill="#E0E0E0"/>
<path d="M30.6176 2.16211H29.1312C28.3105 2.16211 27.6448 2.82814 27.6448 3.6485V9.59462C27.6448 10.415 28.3105 11.081 29.1312 11.081H30.6176C31.4382 11.081 32.1042 10.415 32.1042 9.59462V3.6485C32.1042 2.82814 31.4382 2.16211 30.6176 2.16211Z" fill="#E0E0E0"/>
<path opacity="0.5" d="M28 25.5C28 29.6422 24.6422 33 20.5 33C16.3578 33 13 29.6422 13 25.5C13 21.3578 16.3578 18 20.5 18C24.6422 18 28 21.3578 28 25.5Z" fill="white"/>
<path d="M16 24H25V27H16V24Z" fill="white"/>
<defs>
<linearGradient id="paint0_linear_690_7312" x1="2.1622" y1="14.1133" x2="2.1622" y2="37.8376" gradientUnits="userSpaceOnUse">
<stop stop-color="#3ECFFA"/>
<stop offset="1" stop-color="#1DA1F2"/>
</linearGradient>
<linearGradient id="paint1_linear_690_7312" x1="20" y1="19.9994" x2="24.1972" y2="3.21093" gradientUnits="userSpaceOnUse">
<stop stop-color="#12B2B3"/>
<stop offset="1" stop-color="#56E0E0"/>
</linearGradient>
</defs>
</svg>
