<svg width="32" height="32" viewBox="0 0 32 32" fill="none" xmlns="http://www.w3.org/2000/svg">
<g opacity="0.16">
<path fill-rule="evenodd" clip-rule="evenodd" d="M9.6 0H22.4C27.7019 0 32 4.29807 32 9.6V22.4C32 27.7019 27.7019 32 22.4 32H9.6C4.29807 32 0 27.7019 0 22.4V9.6C0 4.29807 4.29807 0 9.6 0Z" fill="#12B2B3"/>
</g>
<rect opacity="0.01" x="4" y="4" width="24" height="24" fill="black"/>
<path fill-rule="evenodd" clip-rule="evenodd" d="M8 7H9C10.1046 7 11 7.89543 11 9V10C11 11.1046 10.1046 12 9 12H8C6.89543 12 6 11.1046 6 10V9C6 7.89543 6.89543 7 8 7ZM9 9H8V10H9V9ZM13 8C13 7.44772 13.4477 7 14 7H25C25.5523 7 26 7.44772 26 8C26 8.55228 25.5523 9 25 9H14C13.4477 9 13 8.55228 13 8ZM14 10C13.4477 10 13 10.4477 13 11C13 11.5523 13.4477 12 14 12H16C16.5523 12 17 11.5523 17 11C17 10.4477 16.5523 10 16 10H14ZM13 15C13 14.4477 13.4477 14 14 14H25C25.5523 14 26 14.4477 26 15C26 15.5523 25.5523 16 25 16H14C13.4477 16 13 15.5523 13 15ZM14 17C13.4477 17 13 17.4477 13 18C13 18.5523 13.4477 19 14 19H16C16.5523 19 17 18.5523 17 18C17 17.4477 16.5523 17 16 17H14ZM13 22C13 21.4477 13.4477 21 14 21H25C25.5523 21 26 21.4477 26 22C26 22.5523 25.5523 23 25 23H14C13.4477 23 13 22.5523 13 22ZM14 24C13.4477 24 13 24.4477 13 25C13 25.5523 13.4477 26 14 26H16C16.5523 26 17 25.5523 17 25C17 24.4477 16.5523 24 16 24H14ZM8 14H9C10.1046 14 11 14.8954 11 16V17C11 18.1046 10.1046 19 9 19H8C6.89543 19 6 18.1046 6 17V16C6 14.8954 6.89543 14 8 14ZM9 16H8V17H9V16ZM9 21H8C6.89543 21 6 21.8954 6 23V24C6 25.1046 6.89543 26 8 26H9C10.1046 26 11 25.1046 11 24V23C11 21.8954 10.1046 21 9 21ZM8 23H9V24H8V23Z" fill="#24B2B2"/>
</svg>
