<svg width="20" height="18" viewBox="0 0 20 18" fill="none" xmlns="http://www.w3.org/2000/svg">
<path fill-rule="evenodd" clip-rule="evenodd" d="M0.832382 3.5C0.832382 1.98122 2.0636 0.75 3.58238 0.75H16.4157C17.9345 0.75 19.1657 1.98122 19.1657 3.5V16.3333C19.1657 16.6714 18.9796 16.982 18.6816 17.1415C18.3835 17.3011 18.0219 17.2836 17.7406 17.096L13.8465 14.5H3.58238C2.0636 14.5 0.832382 13.2688 0.832382 11.75V3.5ZM3.58238 2.58333C3.07612 2.58333 2.66572 2.99374 2.66572 3.5V11.75C2.66572 12.2563 3.07612 12.6667 3.58238 12.6667H14.124C14.305 12.6667 14.4819 12.7202 14.6325 12.8206L17.3324 14.6205V3.5C17.3324 2.99374 16.922 2.58333 16.4157 2.58333H3.58238Z" fill="#9393AA"/>
<path fill-rule="evenodd" clip-rule="evenodd" d="M3.58238 7.62533C3.58238 6.6128 4.40319 5.79199 5.41572 5.79199C6.42824 5.79199 7.24905 6.6128 7.24905 7.62533C7.24905 8.63785 6.42824 9.45866 5.41572 9.45866C4.40319 9.45866 3.58238 8.63785 3.58238 7.62533Z" fill="#9393AA"/>
<path fill-rule="evenodd" clip-rule="evenodd" d="M8.16571 7.62533C8.16571 6.6128 8.98652 5.79199 9.99904 5.79199C11.0116 5.79199 11.8324 6.6128 11.8324 7.62533C11.8324 8.63785 11.0116 9.45866 9.99904 9.45866C8.98652 9.45866 8.16571 8.63785 8.16571 7.62533Z" fill="#9393AA"/>
<path fill-rule="evenodd" clip-rule="evenodd" d="M12.7491 7.62533C12.7491 6.6128 13.5699 5.79199 14.5824 5.79199C15.5949 5.79199 16.4157 6.6128 16.4157 7.62533C16.4157 8.63785 15.5949 9.45866 14.5824 9.45866C13.5699 9.45866 12.7491 8.63785 12.7491 7.62533Z" fill="#9393AA"/>
</svg>
