<svg width="32" height="32" viewBox="0 0 32 32" fill="none" xmlns="http://www.w3.org/2000/svg">
<path fill-rule="evenodd" clip-rule="evenodd" d="M9.6 0H22.4C27.7019 0 32 4.29807 32 9.6V22.4C32 27.7019 27.7019 32 22.4 32H9.6C4.29807 32 0 27.7019 0 22.4V9.6C0 4.29807 4.29807 0 9.6 0Z" fill="url(#paint0_linear_116_12137)"/>
<path fill-rule="evenodd" clip-rule="evenodd" d="M12 8.8002C11.1164 8.8002 10.4 9.51654 10.4 10.4002V21.6002C10.4 22.4839 11.1164 23.2002 12 23.2002H20C20.8837 23.2002 21.6 22.4839 21.6 21.6002V13.1316L17.2687 8.8002H12ZM8.80005 10.4002C8.80005 8.63288 10.2327 7.2002 12 7.2002H17.6C17.8122 7.2002 18.0157 7.28448 18.1657 7.43451L22.9657 12.2345C23.1158 12.3845 23.2001 12.588 23.2001 12.8002V21.6002C23.2001 23.3675 21.7674 24.8002 20 24.8002H12C10.2327 24.8002 8.80005 23.3675 8.80005 21.6002V10.4002Z" fill="white"/>
<path fill-rule="evenodd" clip-rule="evenodd" d="M17.2939 7.26112C17.5928 7.13729 17.9369 7.20573 18.1657 7.43453L22.9657 12.2345C23.1945 12.4633 23.263 12.8074 23.1392 13.1064C23.0153 13.4053 22.7236 13.6002 22.4 13.6002H20C18.2327 13.6002 16.8 12.1675 16.8 10.4002V8.00022C16.8 7.67665 16.995 7.38494 17.2939 7.26112ZM18.4 9.93159V10.4002C18.4 11.2839 19.1164 12.0002 20 12.0002H20.4687L18.4 9.93159Z" fill="white"/>
<path fill-rule="evenodd" clip-rule="evenodd" d="M15.2 12.8002H12.8V11.2002H15.2V12.8002Z" fill="white"/>
<path fill-rule="evenodd" clip-rule="evenodd" d="M19.2 16.8002H12.8V15.2002H19.2V16.8002Z" fill="white"/>
<path fill-rule="evenodd" clip-rule="evenodd" d="M19.2 20.8002H12.8V19.2002H19.2V20.8002Z" fill="white"/>
<defs>
<linearGradient id="paint0_linear_116_12137" x1="-8.70734e-07" y1="32" x2="32" y2="2.94396e-06" gradientUnits="userSpaceOnUse">
<stop stop-color="#3093BB"/>
<stop offset="1" stop-color="#82DBFF"/>
</linearGradient>
</defs>
</svg>
