<svg width="18" height="18" viewBox="0 0 18 18" fill="none" xmlns="http://www.w3.org/2000/svg">
<path fill-rule="evenodd" clip-rule="evenodd" d="M4.8354 2.6266C4.77771 2.56891 4.68416 2.56891 4.62647 2.6266L3.35125 3.90182C2.57761 4.67547 2.36501 5.84786 2.81775 6.84389C4.4976 10.5396 7.4595 13.5015 11.1552 15.1813C12.1512 15.634 13.3236 15.4214 14.0972 14.6478L15.3725 13.3726C15.4301 13.3149 15.4301 13.2213 15.3725 13.1637L13.657 11.4482C13.612 11.4032 13.5433 11.3921 13.4865 11.4205L12.5344 11.8965C11.362 12.4828 9.94589 12.253 9.01897 11.3261L6.673 8.98008C5.74608 8.05316 5.51629 6.6371 6.10252 5.46463L6.57854 4.5126C6.60698 4.45573 6.59583 4.38703 6.55086 4.34207L4.8354 2.6266ZM3.33011 1.33024C4.10376 0.556586 5.35811 0.556586 6.13176 1.33024L7.84723 3.0457C8.45018 3.64866 8.59967 4.5698 8.21832 5.33249L7.74231 6.28452C7.50898 6.75118 7.60044 7.31479 7.96936 7.68372L10.3153 10.0297C10.6843 10.3986 11.2479 10.4901 11.7145 10.2567L12.6666 9.78073C13.4293 9.39939 14.3504 9.54887 14.9534 10.1518L16.6688 11.8673C17.4425 12.6409 17.4425 13.8953 16.6688 14.6689L15.3936 15.9442C14.0796 17.2582 12.0883 17.6193 10.3965 16.8503C6.29733 14.987 3.01202 11.7017 1.14875 7.60253C0.379771 5.91078 0.740863 3.91949 2.05489 2.60546L3.33011 1.33024Z" fill="#9393AA"/>
</svg>
