<svg width="22" height="22" viewBox="0 0 22 22" fill="none" xmlns="http://www.w3.org/2000/svg">
<path fill-rule="evenodd" clip-rule="evenodd" d="M1.39587 2.70602C1.39587 2.22387 1.78674 1.83301 2.26889 1.83301H9.68952C10.1717 1.83301 10.5625 2.22387 10.5625 2.70602V9.69015C10.5625 10.1723 10.1717 10.5632 9.68952 10.5632H2.26889C1.78674 10.5632 1.39587 10.1723 1.39587 9.69015V2.70602ZM3.14191 3.57904V8.81713H8.81651V3.57904H3.14191Z" fill="#3093BB"/>
<path fill-rule="evenodd" clip-rule="evenodd" d="M1.39587 12.3095C1.39587 11.8274 1.78674 11.4365 2.26889 11.4365H9.68952C10.1717 11.4365 10.5625 11.8274 10.5625 12.3095V19.2937C10.5625 19.7758 10.1717 20.1667 9.68952 20.1667H2.26889C1.78674 20.1667 1.39587 19.7758 1.39587 19.2937V12.3095ZM3.14191 13.1826V18.4206H8.81651V13.1826H3.14191Z" fill="#3093BB"/>
<path fill-rule="evenodd" clip-rule="evenodd" d="M11.4356 2.70602C11.4356 2.22387 11.8264 1.83301 12.3086 1.83301H19.7292C20.2114 1.83301 20.6022 2.22387 20.6022 2.70602V9.69015C20.6022 10.1723 20.2114 10.5632 19.7292 10.5632H12.3086C11.8264 10.5632 11.4356 10.1723 11.4356 9.69015V2.70602ZM13.1816 3.57904V8.81713H18.8562V3.57904H13.1816Z" fill="#3093BB"/>
<path fill-rule="evenodd" clip-rule="evenodd" d="M11.4356 12.3095C11.4356 11.8274 11.8264 11.4365 12.3086 11.4365H19.7292C20.2114 11.4365 20.6022 11.8274 20.6022 12.3095V19.2937C20.6022 19.7758 20.2114 20.1667 19.7292 20.1667H12.3086C11.8264 20.1667 11.4356 19.7758 11.4356 19.2937V12.3095ZM13.1816 13.1826V18.4206H18.8562V13.1826H13.1816Z" fill="#3093BB"/>
</svg>
