<svg width="22" height="22" viewBox="0 0 22 22" fill="none" xmlns="http://www.w3.org/2000/svg">
<path fill-rule="evenodd" clip-rule="evenodd" d="M17.8753 5.5C16.1034 5.5 14.667 6.93642 14.667 8.70833C14.667 10.4802 16.1034 11.9167 17.8753 11.9167C19.6472 11.9167 21.0837 10.4802 21.0837 8.70833C21.0837 6.93642 19.6472 5.5 17.8753 5.5Z" fill="#9393AA"/>
<path fill-rule="evenodd" clip-rule="evenodd" d="M3.20866 3.66634C2.95553 3.66634 2.75033 3.87154 2.75033 4.12467V8.24967C2.75033 10.2747 4.39195 11.9163 6.41699 11.9163H7.33366C9.3587 11.9163 11.0003 10.2747 11.0003 8.24967V4.12467C11.0003 3.87154 10.7951 3.66634 10.542 3.66634H10.0837V1.83301H10.542C11.8076 1.83301 12.8337 2.85902 12.8337 4.12467V8.24967C12.8337 11.2872 10.3712 13.7497 7.33366 13.7497H6.41699C3.37943 13.7497 0.916992 11.2872 0.916992 8.24967V4.12467C0.916992 2.85902 1.94301 1.83301 3.20866 1.83301H3.66699V3.66634H3.20866Z" fill="#9393AA"/>
<path fill-rule="evenodd" clip-rule="evenodd" d="M18.7923 11V17.875C18.7923 19.1407 17.7663 20.1667 16.5006 20.1667H8.25065C6.985 20.1667 5.95898 19.1407 5.95898 17.875V12.8333H7.79232V17.875C7.79232 18.1281 7.99752 18.3333 8.25065 18.3333H16.5006C16.7538 18.3333 16.959 18.1281 16.959 17.875V11H18.7923Z" fill="#9393AA"/>
</svg>
