<svg width="20" height="20" viewBox="0 0 20 20" fill="none" xmlns="http://www.w3.org/2000/svg">
<g id="User Interface/edit">
<g id="edit">
<path id="Vector 136 (Stroke)" fill-rule="evenodd" clip-rule="evenodd" d="M12.7444 1.07757C13.0699 0.752137 13.5975 0.752137 13.9229 1.07757L16.4229 3.57757C16.7484 3.90301 16.7484 4.43065 16.4229 4.75609L6.42293 14.7561C6.31613 14.8629 6.18232 14.9387 6.03579 14.9753L2.70246 15.8086C2.41848 15.8796 2.11807 15.7964 1.91109 15.5894C1.7041 15.3824 1.6209 15.082 1.69189 14.7981L2.52522 11.4647C2.56186 11.3182 2.63762 11.1844 2.74442 11.0776L12.7444 1.07757ZM4.08615 12.0929L3.64565 13.8549L5.40763 13.4144L14.6552 4.16683L13.3337 2.84534L4.08615 12.0929Z" fill="#3093BB"/>
<path id="Vector 137 (Stroke)" fill-rule="evenodd" clip-rule="evenodd" d="M18.3337 18.3337H1.66699V16.667H18.3337V18.3337Z" fill="#3093BB"/>
</g>
</g>
</svg>
