<svg width="28" height="32" viewBox="0 0 28 32" fill="none" xmlns="http://www.w3.org/2000/svg">
<path fill-rule="evenodd" clip-rule="evenodd" d="M26.5121 20.4391C26.3429 24.5879 26.4034 28.5976 27.8332 30.1712C27.9684 30.3201 28.0208 30.5256 27.9733 30.7204C27.9259 30.9154 27.7846 31.0743 27.5959 31.1452C26.4642 31.5702 24.8998 31.9666 23.0018 31.9666C21.8624 31.9666 20.603 31.8238 19.2444 31.4587C17.4749 30.9831 16.2268 30.3157 15.8009 30.0692C15.2214 30.1641 14.627 30.2143 14.0209 30.2143C13.4147 30.2143 12.8201 30.1641 12.2405 30.0691C11.8146 30.3155 10.5665 30.9831 8.79682 31.4587C7.77837 31.7324 6.48106 31.9659 5.0198 31.9659C3.61316 31.9659 2.05462 31.7497 0.445346 31.1454C0.25667 31.0745 0.115373 30.9155 0.0679184 30.7206C0.0204634 30.5257 0.0729538 30.32 0.208147 30.1713C1.6379 28.5977 1.6984 24.5877 1.52918 20.4386C0.906698 19.8572 0.516834 19.0325 0.516834 18.1186C0.516834 17.3161 0.817586 16.5826 1.3122 16.022C1.10422 11.7908 0.993978 8.96126 2.34523 6.34689C2.42091 6.20047 2.50155 6.05404 2.58494 5.91163C3.55609 4.25279 5.36114 3.1795 7.3454 3.06219C8.88212 1.20248 11.1106 0.0940788 13.5043 0.00930159C16.2293 -0.0875325 18.9132 0.573245 21.2661 1.91937C23.2848 3.0744 24.7756 4.56407 25.6969 6.34697C27.0474 8.9599 26.9371 11.7897 26.7291 16.0213C27.224 16.582 27.5251 17.3158 27.5251 18.1186C27.5251 19.0328 27.1349 19.8577 26.5121 20.4391ZM24.931 16.3593V19.3708C24.931 19.5823 24.9242 19.7921 24.9122 20.0006C25.718 19.7499 26.3043 19.001 26.3043 18.1186C26.3043 17.2431 25.727 16.4995 24.931 16.2429V16.3352C24.9312 16.3433 24.9312 16.3513 24.931 16.3593ZM3.4315 6.90131C3.49749 6.77369 3.56776 6.64599 3.64047 6.52186C4.44438 5.14866 5.98194 4.28391 7.65309 4.26503L7.66156 4.26487C7.84695 4.26101 8.02044 4.17365 8.13328 4.02745C9.4505 2.3197 11.4242 1.29706 13.5482 1.22176C16.0445 1.13327 18.5029 1.73816 20.6574 2.97084C22.469 4.00736 23.7993 5.32975 24.6114 6.90131C25.6923 8.99268 25.7244 11.2676 25.5471 15.1766C25.3509 15.0955 25.1449 15.0336 24.9315 14.9924V14.3755C24.9315 14.0405 24.6582 13.7689 24.3211 13.7689C23.984 13.7689 23.7107 14.0405 23.7107 14.3755V15.7533C15.3032 15.8425 10.7518 11.8176 9.53733 10.5583C9.39443 10.4101 9.18584 10.3438 8.9832 10.382C8.78034 10.4201 8.61066 10.5576 8.53215 10.7474C7.64523 12.8917 6.09562 14.0136 3.65557 14.2779C3.34589 14.3114 3.11137 14.5714 3.11137 14.881V14.9923C2.89767 15.0335 2.69144 15.0955 2.49506 15.1767C2.31775 11.2687 2.35003 8.99382 3.4315 6.90131ZM1.73754 18.1186C1.73754 19.0011 2.32386 19.75 3.12968 20.0007C3.11763 19.7921 3.11084 19.5823 3.11084 19.3708V16.243C2.31486 16.4995 1.73754 17.2431 1.73754 18.1186ZM1.63866 30.2667C2.72708 28.4203 2.91583 25.3508 2.77743 21.1623C2.93948 21.212 3.10718 21.2487 3.27899 21.2724C3.97319 25.1569 6.75557 28.3325 10.4274 29.6093C8.6614 30.3646 5.31895 31.3654 1.63866 30.2667ZM4.33155 19.3707C4.33155 24.6809 8.67818 29.0011 14.0209 29.0011C19.3637 29.0011 23.7103 24.681 23.7103 19.3707V16.9667C20.0038 17.0061 16.6013 16.2953 13.5885 14.8543C11.5847 13.8959 10.1629 12.8023 9.2835 12.005C8.2504 13.916 6.62068 15.036 4.33162 15.4104L4.33155 19.3707ZM19.6035 30.2983C18.8209 30.0903 18.1456 29.8391 17.6125 29.6101C21.2855 28.3339 24.0688 25.1578 24.7632 21.2724C24.9349 21.2488 25.1023 21.2122 25.2642 21.1625C25.1257 25.3515 25.3144 28.421 26.4034 30.2674C24.2478 30.9146 21.9643 30.9255 19.6035 30.2983ZM11.9093 24.1529C13.0738 25.3104 14.9687 25.3104 16.1332 24.1529C16.3716 23.916 16.7581 23.916 16.9964 24.1529C17.2348 24.3898 17.2348 24.7739 16.9964 25.0108C16.1762 25.826 15.0987 26.2336 14.0213 26.2336C12.9439 26.2336 11.8665 25.826 11.0462 25.0108C10.8078 24.7739 10.8078 24.3898 11.0462 24.1529C11.2846 23.916 11.671 23.916 11.9093 24.1529ZM6.72566 17.573C6.48724 17.8099 6.48724 18.1939 6.72566 18.4308C6.96401 18.6677 7.35044 18.6677 7.58878 18.4308C7.98002 18.0421 8.61646 18.0421 9.0077 18.4308C9.12687 18.5493 9.28305 18.6085 9.4393 18.6085C9.59555 18.6085 9.75172 18.5493 9.87089 18.4308C10.1093 18.1939 10.1093 17.8099 9.87089 17.573C9.00381 16.7111 7.59275 16.711 6.72566 17.573ZM21.3163 17.573C21.5547 17.8099 21.5547 18.1939 21.3163 18.4308C21.1971 18.5493 21.0409 18.6085 20.8847 18.6085C20.7284 18.6085 20.5722 18.5493 20.4531 18.4308C20.0619 18.0421 19.4254 18.0421 19.0341 18.4308C18.7958 18.6677 18.4094 18.6677 18.171 18.4308C17.9326 18.1939 17.9326 17.8099 18.171 17.573C19.0381 16.7111 20.4491 16.7111 21.3163 17.573Z" fill="#9393AA"/>
</svg>
