<svg width="22" height="22" viewBox="0 0 22 22" fill="none" xmlns="http://www.w3.org/2000/svg">
<g id="User Interface/grid">
<g id="grid">
<path id="Rectangle 61 (Stroke)" fill-rule="evenodd" clip-rule="evenodd" d="M1.39551 2.70602C1.39551 2.22387 1.78637 1.83301 2.26852 1.83301H9.68916C10.1713 1.83301 10.5622 2.22387 10.5622 2.70602V9.69015C10.5622 10.1723 10.1713 10.5632 9.68916 10.5632H2.26852C1.78637 10.5632 1.39551 10.1723 1.39551 9.69015V2.70602ZM3.14154 3.57904V8.81713H8.81614V3.57904H3.14154Z" fill="#9393AA"/>
<path id="Rectangle 61 (Stroke)_2" fill-rule="evenodd" clip-rule="evenodd" d="M1.39551 12.3095C1.39551 11.8274 1.78637 11.4365 2.26852 11.4365H9.68916C10.1713 11.4365 10.5622 11.8274 10.5622 12.3095V19.2937C10.5622 19.7758 10.1713 20.1667 9.68916 20.1667H2.26852C1.78637 20.1667 1.39551 19.7758 1.39551 19.2937V12.3095ZM3.14154 13.1826V18.4206H8.81614V13.1826H3.14154Z" fill="#9393AA"/>
<path id="Rectangle 61 (Stroke)_3" fill-rule="evenodd" clip-rule="evenodd" d="M11.4355 2.70602C11.4355 2.22387 11.8264 1.83301 12.3086 1.83301H19.7292C20.2114 1.83301 20.6022 2.22387 20.6022 2.70602V9.69015C20.6022 10.1723 20.2114 10.5632 19.7292 10.5632H12.3086C11.8264 10.5632 11.4355 10.1723 11.4355 9.69015V2.70602ZM13.1816 3.57904V8.81713H18.8562V3.57904H13.1816Z" fill="#9393AA"/>
<path id="Rectangle 61 (Stroke)_4" fill-rule="evenodd" clip-rule="evenodd" d="M11.4355 12.3095C11.4355 11.8274 11.8264 11.4365 12.3086 11.4365H19.7292C20.2114 11.4365 20.6022 11.8274 20.6022 12.3095V19.2937C20.6022 19.7758 20.2114 20.1667 19.7292 20.1667H12.3086C11.8264 20.1667 11.4355 19.7758 11.4355 19.2937V12.3095ZM13.1816 13.1826V18.4206H18.8562V13.1826H13.1816Z" fill="#9393AA"/>
</g>
</g>
</svg>
