<svg width="32" height="32" viewBox="0 0 32 32" fill="none" xmlns="http://www.w3.org/2000/svg">
<path fill-rule="evenodd" clip-rule="evenodd" d="M9.6 0H22.4C27.7019 0 32 4.29807 32 9.6V22.4C32 27.7019 27.7019 32 22.4 32H9.6C4.29807 32 0 27.7019 0 22.4V9.6C0 4.29807 4.29807 0 9.6 0Z" fill="url(#paint0_linear_116_12144)"/>
<path fill-rule="evenodd" clip-rule="evenodd" d="M16 8.8002C12.0236 8.8002 8.80001 12.0237 8.80001 16.0002C8.80001 19.9766 12.0236 23.2002 16 23.2002C19.9765 23.2002 23.2 19.9766 23.2 16.0002C23.2 12.0237 19.9765 8.8002 16 8.8002ZM7.20001 16.0002C7.20001 11.1401 11.1399 7.2002 16 7.2002C20.8601 7.2002 24.8 11.1401 24.8 16.0002C24.8 20.8603 20.8601 24.8002 16 24.8002C11.1399 24.8002 7.20001 20.8603 7.20001 16.0002Z" fill="white"/>
<path fill-rule="evenodd" clip-rule="evenodd" d="M15.3778 11.9115C14.936 11.9115 14.5778 12.2697 14.5778 12.7115V13.7782H12.9778V12.7115C12.9778 11.386 14.0523 10.3115 15.3778 10.3115H16.6222C17.9477 10.3115 19.0222 11.386 19.0222 12.7115V14.0043C19.0222 14.6409 18.7694 15.2513 18.3193 15.7014L17.0343 16.9864C16.8843 17.1364 16.8 17.3399 16.8 17.552V19.1115H15.2V17.552C15.2 16.9155 15.4529 16.3051 15.9029 15.855L17.1879 14.57C17.3379 14.42 17.4222 14.2165 17.4222 14.0043V12.7115C17.4222 12.2697 17.0641 11.9115 16.6222 11.9115H15.3778Z" fill="white"/>
<path fill-rule="evenodd" clip-rule="evenodd" d="M15.2 21.7778V20H16.8V21.7778H15.2Z" fill="white"/>
<defs>
<linearGradient id="paint0_linear_116_12144" x1="-8.70734e-07" y1="32" x2="32" y2="2.94396e-06" gradientUnits="userSpaceOnUse">
<stop stop-color="#3093BB"/>
<stop offset="1" stop-color="#82DBFF"/>
</linearGradient>
</defs>
</svg>
