<svg width="40" height="40" viewBox="0 0 40 40" fill="none" xmlns="http://www.w3.org/2000/svg">
<path d="M33.5569 19.9997L29.6657 22.7904V17.209L33.5569 19.9997Z" fill="white"/>
<path fill-rule="evenodd" clip-rule="evenodd" d="M30.7143 5.71411V3.80952C30.7143 1.70558 29.062 0 27.0239 0H12.2619C10.2238 0 8.57147 1.70558 8.57147 3.80952V5.71411V5.71429V33.5713H10V5.71429H29.286V33.5713H30.7146V5.71411H30.7143ZM30.7143 36.4289V33.5718H8.57147V36.4289C8.57147 38.4014 10.2238 40.0003 12.2619 40.0003H27.0239C29.062 40.0003 30.7143 38.4014 30.7143 36.4289Z" fill="url(#paint0_linear_690_7283)"/>
<path d="M29.2859 33.571H10.0002L10.0002 5.71387H29.2859V10.673C25.6855 10.6632 23.8382 12.7798 22.3281 16.0913C20.818 19.4029 21.3506 23.3023 23.6915 26.0739L22.1544 29.7336L27.5121 28.7839C28.5367 29.1703 28.1926 29.3685 29.2859 29.3691V33.571Z" fill="#F6F6F6"/>
<path d="M21.0273 36.7866C21.0273 36.0469 20.4077 35.4473 19.6434 35.4473C18.8791 35.4473 18.2595 36.0469 18.2595 36.7866C18.2595 37.5262 18.8791 38.1258 19.6434 38.1258C20.4076 38.1256 21.0271 37.5261 21.0273 36.7866Z" fill="#12B2B3"/>
<path d="M30.7087 10.7139C34.4219 10.7096 37.7802 12.9243 39.2459 16.3441C40.7117 19.7638 40.0028 23.7302 37.4438 26.4271C34.8848 29.1241 30.9683 30.0324 27.4875 28.7362L22.0985 29.6813L23.6446 26.0395C21.2974 23.2794 20.7661 19.4029 22.2836 16.1105C23.8012 12.8182 27.0905 10.7112 30.7087 10.7139Z" fill="url(#paint1_linear_690_7283)"/>
<path fill-rule="evenodd" clip-rule="evenodd" d="M30.7142 15.2383C29.4935 15.2418 28.3207 15.714 27.438 16.5573V15.7145C27.438 15.4515 27.2248 15.2384 26.9619 15.2384C26.6989 15.2384 26.4857 15.4515 26.4857 15.7145V17.8573C26.4857 18.1203 26.6989 18.3335 26.9619 18.3335H29.1047C29.3677 18.3335 29.5809 18.1203 29.5809 17.8573C29.5809 17.5943 29.3677 17.3811 29.1047 17.3811H27.9619C29.2248 16.0614 31.2468 15.8238 32.7812 16.815C34.3156 17.8061 34.9305 19.7469 34.2468 21.4409C33.5631 23.1348 31.7732 24.1049 29.9807 23.7532C28.1882 23.4015 26.8976 21.8269 26.9047 20.0002C26.9047 19.7372 26.6915 19.524 26.4285 19.524C26.1655 19.524 25.9523 19.7372 25.9523 20.0002C25.9523 22.6301 28.0843 24.7621 30.7142 24.7621C33.3442 24.7621 35.4761 22.6301 35.4761 20.0002C35.4761 17.3703 33.3442 15.2383 30.7142 15.2383ZM30.714 18.572C30.451 18.572 30.2378 18.7852 30.2378 19.0482V20.4768C30.2378 20.7398 30.451 20.953 30.714 20.953H31.6664C31.9294 20.953 32.1426 20.7398 32.1426 20.4768C32.1426 20.2138 31.9294 20.0006 31.6664 20.0006H31.1902V19.0482C31.1902 18.7852 30.977 18.572 30.714 18.572Z" fill="white"/>
<path d="M0.714469 22.1431H13.5716C13.9661 22.1431 14.2859 21.8233 14.2859 21.4289V9.28599C14.2859 8.8915 13.9661 8.57171 13.5716 8.57171H10.7145C10.7145 8.17722 10.3947 7.85742 10.0002 7.85742C9.60569 7.85742 9.2859 8.17722 9.2859 8.57171H5.00018C5.00018 8.17722 4.68039 7.85742 4.2859 7.85742C3.89141 7.85742 3.57161 8.17722 3.57161 8.57171H0.714469C0.31998 8.57171 0.000183115 8.8915 0.000183105 9.28599V21.4289C0.000183105 21.8233 0.31998 22.1431 0.714469 22.1431Z" fill="url(#paint2_linear_690_7283)"/>
<path d="M0.000183105 12.1426L14.2859 12.1426V13.5711H0.000183105V12.1426Z" fill="white"/>
<path d="M6.88538 19.0627C6.67264 19.2755 6.34841 19.3087 6.101 19.1626C6.0551 19.1355 6.01197 19.1022 5.97256 19.063L4.47456 17.6939C4.22269 17.4418 4.22269 17.0333 4.47456 16.7812C4.7266 16.5291 5.13523 16.5291 5.38728 16.7812L6.42889 17.6939L8.91912 15.189C9.17108 14.937 9.5798 14.937 9.83176 15.189C10.0837 15.4411 10.0837 15.8496 9.83166 16.1016L6.88538 19.0627Z" fill="white"/>
<defs>
<linearGradient id="paint0_linear_690_7283" x1="19.6431" y1="60.0002" x2="53.5415" y2="41.2347" gradientUnits="userSpaceOnUse">
<stop stop-color="#12B2B3"/>
<stop offset="1" stop-color="#56E0E0"/>
</linearGradient>
<linearGradient id="paint1_linear_690_7283" x1="21.4284" y1="10.7139" x2="21.4284" y2="29.6813" gradientUnits="userSpaceOnUse">
<stop stop-color="#3ECFFA"/>
<stop offset="1" stop-color="#1DA1F2"/>
</linearGradient>
<linearGradient id="paint2_linear_690_7283" x1="0.000183105" y1="7.85742" x2="0.000183105" y2="22.1431" gradientUnits="userSpaceOnUse">
<stop stop-color="#3ECFFA"/>
<stop offset="1" stop-color="#1DA1F2"/>
</linearGradient>
</defs>
</svg>
