<svg width="40" height="40" viewBox="0 0 40 40" fill="none" xmlns="http://www.w3.org/2000/svg">
<path d="M25.8949 30.2378C25.6348 29.9036 25.1651 29.8176 24.8033 30.038C19.7052 33.1557 13.0423 31.5546 9.9213 26.462C6.80029 21.3693 8.40302 14.7136 13.5011 11.5959C14.7582 10.8271 16.1592 10.3229 17.6183 10.1143C18.0287 10.0554 18.3334 9.70423 18.3333 9.29015V2.49751C18.3333 2.03776 17.9602 1.66504 17.4999 1.66504C7.84998 1.66504 0 10.2542 0 20.8112C0.0119531 31.3804 8.58614 39.9454 19.1666 39.9573C23.0082 40.2555 26.8068 38.9857 29.6949 36.4378C30.0433 36.1514 30.1002 35.6399 29.8233 35.284L25.8949 30.2378Z" fill="url(#paint0_linear_690_7344)"/>
<path d="M20.8335 8.32444C26.8135 8.33177 31.6595 13.1725 31.6668 19.1462C31.6668 19.6059 32.0399 19.9787 32.5002 19.9787H39.1668C39.627 19.9787 40.0001 19.6059 40.0001 19.1462C39.9881 8.57698 31.4139 0.0119403 20.8335 0C20.3732 0 20.0001 0.372725 20.0001 0.832467V7.49197C20.0001 7.95171 20.3732 8.32444 20.8335 8.32444Z" fill="url(#paint1_linear_690_7344)"/>
<path d="M39.1666 21.6436H32.3683C31.9506 21.6394 31.5943 21.9448 31.535 22.3578C31.1596 24.9789 29.8334 27.3707 27.8083 29.079C27.4582 29.3718 27.4092 29.8914 27.6983 30.2444L32.6783 36.4044C32.8236 36.5845 33.0374 36.6961 33.2683 36.7124H33.3333C33.5442 36.7126 33.7473 36.6328 33.9017 36.4893C37.7859 32.8609 39.9933 27.7883 40 22.4761C40 22.0163 39.627 21.6436 39.1666 21.6436Z" fill="#E0E0E0"/>
<defs>
<linearGradient id="paint0_linear_690_7344" x1="0" y1="1.66504" x2="0" y2="40.0001" gradientUnits="userSpaceOnUse">
<stop stop-color="#3ECFFA"/>
<stop offset="1" stop-color="#1DA1F2"/>
</linearGradient>
<linearGradient id="paint1_linear_690_7344" x1="30.0001" y1="29.968" x2="49.9788" y2="9.96799" gradientUnits="userSpaceOnUse">
<stop stop-color="#12B2B3"/>
<stop offset="1" stop-color="#56E0E0"/>
</linearGradient>
</defs>
</svg>
