<svg width="22" height="22" viewBox="0 0 22 22" fill="none" xmlns="http://www.w3.org/2000/svg">
<path fill-rule="evenodd" clip-rule="evenodd" d="M5.95801 3.20866C5.95801 1.94301 6.98402 0.916992 8.24967 0.916992H13.7497C15.0153 0.916992 16.0413 1.94301 16.0413 3.20866C16.0413 4.47431 15.0153 5.50033 13.7497 5.50033H8.24967C6.98402 5.50033 5.95801 4.47431 5.95801 3.20866ZM8.24967 2.75033C7.99654 2.75033 7.79134 2.95553 7.79134 3.20866C7.79134 3.46179 7.99654 3.66699 8.24967 3.66699H13.7497C14.0028 3.66699 14.208 3.46179 14.208 3.20866C14.208 2.95553 14.0028 2.75033 13.7497 2.75033H8.24967Z" fill="#9393AA"/>
<path fill-rule="evenodd" clip-rule="evenodd" d="M7.33301 4.58366C7.33301 4.0774 7.74341 3.66699 8.24967 3.66699H13.7497C14.2559 3.66699 14.6663 4.0774 14.6663 4.58366V17.417C14.6663 19.442 13.0247 21.0837 10.9997 21.0837C8.97463 21.0837 7.33301 19.442 7.33301 17.417V4.58366ZM9.16634 5.50033V17.417C9.16634 18.4295 9.98715 19.2503 10.9997 19.2503C12.0122 19.2503 12.833 18.4295 12.833 17.417V5.50033H9.16634Z" fill="#9393AA"/>
</svg>
