<svg width="32" height="32" viewBox="0 0 32 32" fill="none" xmlns="http://www.w3.org/2000/svg">
<path fill-rule="evenodd" clip-rule="evenodd" d="M9.6 0H22.4C27.7019 0 32 4.29807 32 9.6V22.4C32 27.7019 27.7019 32 22.4 32H9.6C4.29807 32 0 27.7019 0 22.4V9.6C0 4.29807 4.29807 0 9.6 0Z" fill="url(#paint0_linear_116_12152)"/>
<path fill-rule="evenodd" clip-rule="evenodd" d="M8.80002 16.8012H18.4V15.2012H8.80002V16.8012Z" fill="white"/>
<path fill-rule="evenodd" clip-rule="evenodd" d="M11.0343 12.6348L8.23434 15.4348C7.92192 15.7472 7.92192 16.2537 8.23434 16.5661L11.0343 19.3661L12.1657 18.2348L9.9314 16.0005L12.1657 13.7661L11.0343 12.6348Z" fill="white"/>
<path fill-rule="evenodd" clip-rule="evenodd" d="M12.8 9.60078C12.8 9.15895 13.1582 8.80078 13.6 8.80078H23.2C23.6418 8.80078 24 9.15895 24 9.60078V22.4008C24 22.8426 23.6418 23.2008 23.2 23.2008H13.6C13.1582 23.2008 12.8 22.8426 12.8 22.4008V20.0008H14.4V21.6008H22.4V10.4008H14.4V12.0008H12.8V9.60078Z" fill="white"/>
<defs>
<linearGradient id="paint0_linear_116_12152" x1="-8.70734e-07" y1="32" x2="32" y2="2.94396e-06" gradientUnits="userSpaceOnUse">
<stop stop-color="#3093BB"/>
<stop offset="1" stop-color="#82DBFF"/>
</linearGradient>
</defs>
</svg>
