<svg width="56" height="30" viewBox="0 0 56 30" fill="none" xmlns="http://www.w3.org/2000/svg">
<path d="M25.9369 0C26.0689 0.0489438 26.2 0.100263 26.3329 0.146399C26.7797 0.301546 27.2468 0.411578 27.6707 0.616394C29.4381 1.4702 30.5926 2.88596 31.1487 4.80547C31.2562 5.23976 31.3256 5.68309 31.3562 6.13013C31.3777 6.33206 31.4396 6.40581 31.6357 6.39959C31.9801 6.38865 32.3252 6.40175 32.6698 6.39661C32.8256 6.39429 32.895 6.45547 32.8883 6.61935C32.8813 6.79252 32.8873 6.96624 32.8873 7.13972C32.887 13.2352 32.8868 19.3307 32.8865 25.4263C32.8826 25.505 32.883 25.5839 32.8877 25.6627C32.9103 25.8695 32.8278 25.9336 32.6259 25.9325C31.1473 25.9247 29.6686 25.9245 28.19 25.9321C27.9959 25.9331 27.9281 25.8589 27.9309 25.6763C27.9323 25.5817 27.927 25.4871 27.927 25.3925C27.9267 23.0899 27.9266 20.7874 27.9266 18.4848C27.9265 18.0317 27.9504 18.0847 27.5493 18.0844C25.8178 18.0831 24.0862 18.0878 22.3548 18.0786C22.1322 18.0774 22.0736 18.142 22.0743 18.3695C22.0822 20.7746 22.0793 23.1797 22.079 25.5847C22.079 25.927 22.0781 25.9277 21.7396 25.9278C20.2992 25.9281 18.8589 25.9236 17.4185 25.9325C17.1931 25.9339 17.1152 25.8759 17.1154 25.6292C17.1211 19.3365 17.1222 13.0439 17.1186 6.75125C17.1185 6.40364 17.119 6.40156 17.4648 6.39784C17.7559 6.39472 18.0472 6.39175 18.3382 6.39925C18.5069 6.4036 18.572 6.35179 18.5873 6.1603C18.7704 3.86637 19.8233 2.11721 21.7265 0.911467C22.3325 0.541536 22.993 0.275481 23.682 0.123711C23.7503 0.0933808 23.8131 0.0515743 23.8681 3.25328e-06L25.9369 0ZM22.0784 9.94283H22.0792C22.0792 11.0072 22.0791 12.0715 22.0791 13.1359C22.0791 13.4816 22.0788 13.4818 22.4161 13.4817C24.155 13.4812 25.8938 13.4808 27.6326 13.4804C27.9468 13.4805 27.9459 13.4822 27.9459 13.1502C27.9454 11.053 27.9457 8.95584 27.9467 6.85869C27.9476 6.35451 27.8782 6.40075 28.3845 6.39867C29.0509 6.39593 29.7175 6.39021 30.3837 6.40066C30.5916 6.40392 30.6502 6.32478 30.6394 6.12284C30.6048 5.49227 30.457 4.87375 30.2035 4.29861C29.4731 2.62461 28.2626 1.49183 26.5473 0.971569C25.742 0.731613 24.895 0.678383 24.0673 0.81571C23.2396 0.953036 22.4518 1.2775 21.7606 1.76576C21.0693 2.25402 20.4919 2.89392 20.0697 3.63942C19.6476 4.38492 19.3912 5.21747 19.3192 6.07715C19.2936 6.39526 19.3074 6.3969 19.6096 6.39713C20.322 6.39766 21.0344 6.39798 21.7468 6.3981C22.077 6.39845 22.078 6.39924 22.0782 6.74979C22.0787 7.81414 22.0788 8.87848 22.0784 9.94283V9.94283ZM18.6076 7.65473C18.6005 7.77302 18.6388 7.88944 18.7142 7.97902C18.7896 8.06861 18.896 8.12423 19.0108 8.13395C19.0699 8.1378 19.1292 8.12952 19.1852 8.1096C19.2413 8.08968 19.2929 8.05851 19.3371 8.0179C19.3813 7.97729 19.4173 7.92806 19.4429 7.87305C19.4684 7.81804 19.4832 7.75834 19.4862 7.69743C19.4834 7.5828 19.4401 7.47315 19.3644 7.389C19.2887 7.30484 19.1859 7.25195 19.075 7.2402C18.9598 7.23203 18.8461 7.27098 18.7585 7.34859C18.671 7.4262 18.6168 7.53621 18.6076 7.65473H18.6076ZM31.3628 7.69711C31.3665 7.63788 31.3582 7.57851 31.3385 7.52273C31.3188 7.46695 31.2881 7.41597 31.2483 7.373C31.2085 7.33003 31.1606 7.29599 31.1074 7.27302C31.0542 7.25005 30.997 7.23866 30.9393 7.23955C30.8822 7.24019 30.8257 7.25241 30.7731 7.27552C30.7205 7.29863 30.6729 7.33218 30.6329 7.37424C30.5929 7.4163 30.5614 7.46605 30.5401 7.52066C30.5188 7.57527 30.5081 7.63365 30.5088 7.69249C30.5094 7.75133 30.5213 7.80947 30.5437 7.86358C30.5662 7.9177 30.5988 7.96673 30.6396 8.00788C30.6805 8.04903 30.7288 8.0815 30.7819 8.10342C30.835 8.12535 30.8917 8.1363 30.9489 8.13566C31.0045 8.13651 31.0597 8.12565 31.1111 8.10375C31.1625 8.08185 31.209 8.04937 31.2478 8.00831C31.2865 7.96724 31.3167 7.91845 31.3365 7.86493C31.3563 7.81142 31.3653 7.75431 31.3628 7.69711V7.69711Z" fill="#3093BB"/>
<path d="M44.2461 12.6573C43.7861 12.6975 43.3637 12.7055 42.9512 12.7755C41.1829 13.0757 39.8913 14.4699 39.6262 16.2918C39.2979 18.5479 40.6289 20.5647 42.7123 21.0845C43.7336 21.3524 44.8159 21.2046 45.734 20.6717C46.652 20.1388 47.3349 19.262 47.6405 18.2238C47.7751 17.7564 47.8472 17.2723 47.855 16.7848C47.8738 14.6559 47.8489 12.5266 47.8558 10.3975C47.8587 9.48442 47.8523 8.56679 47.9365 7.65975C48.0433 6.50973 48.443 5.44226 49.0294 4.45515C49.987 2.84316 51.2935 1.64092 52.9997 0.921366C53.8865 0.546854 54.8311 0.338169 55.7891 0.305116C55.9583 0.298909 55.9992 0.359615 55.9987 0.518985C55.9948 1.80441 55.9949 3.08983 55.9991 4.37526C55.9996 4.52813 55.9458 4.57753 55.8028 4.59316C54.1135 4.77776 52.9279 5.68148 52.2929 7.29614C52.1167 7.74921 52.0229 8.2317 52.016 8.71965C51.9901 11.377 51.9979 14.0347 52.0061 16.6923C52.0114 18.4285 51.6238 20.0501 50.704 21.5156C49.5078 23.4214 47.8483 24.701 45.7018 25.2348C43.5367 25.7733 41.4572 25.4797 39.5221 24.3182C38.4771 23.6919 37.5779 22.838 36.8872 21.8165C36.1965 20.7949 35.7311 19.6303 35.5235 18.4042C35.316 17.1781 35.3713 15.9201 35.6857 14.7183C36 13.5166 36.5658 12.4 37.3433 11.4469C38.17 10.4199 39.2163 9.67981 40.3698 9.08774C41.4476 8.53455 42.5909 8.36133 43.7797 8.42534C43.7874 8.42575 43.795 8.42565 43.8027 8.426C44.2267 8.445 44.2252 8.44501 44.2273 8.87949C44.2329 10.0465 44.2391 11.2136 44.246 12.3806C44.2465 12.4734 44.2461 12.5663 44.2461 12.6573Z" fill="#196F92"/>
<path d="M9.46535 18.4011C9.46547 20.7904 9.46547 23.1797 9.46537 25.569C9.46534 25.9241 9.46474 25.927 9.11124 25.9274C7.73218 25.9288 6.35312 25.9292 4.97406 25.9284C4.65345 25.9284 4.65165 25.9282 4.65164 25.6033C4.65142 20.8798 4.65163 16.1564 4.65227 11.433C4.65237 10.8728 4.65479 10.8728 4.10258 10.8728C2.83077 10.8728 1.55892 10.8681 0.287168 10.8775C0.0711469 10.8791 -0.00186757 10.8239 3.61425e-05 10.5899C0.0106851 9.28099 0.010924 7.97202 0.00075287 6.66298C-0.000611218 6.45564 0.0563605 6.39396 0.258927 6.39418C4.77157 6.3991 9.28422 6.39857 13.7969 6.39258C14.0378 6.39222 14.0923 6.48216 14.0908 6.71102C14.0824 8.00418 14.0827 9.29739 14.0916 10.5906C14.0935 10.8288 14.0075 10.8782 13.7963 10.8769C12.4633 10.8688 11.1301 10.8727 9.79702 10.873C9.46624 10.873 9.4654 10.8736 9.46536 11.2095C9.46511 13.6067 9.4651 16.0039 9.46535 18.4011Z" fill="#3093BB"/>
<path d="M48.82 28.189C48.8204 28.4266 48.7753 28.6619 48.6874 28.8816C48.5994 29.1012 48.4702 29.3008 48.3072 29.469C48.1443 29.6373 47.9507 29.7708 47.7375 29.862C47.5244 29.9531 47.2959 30.0002 47.0651 30.0004C46.8343 30.0007 46.6057 29.9541 46.3924 29.8634C46.179 29.7726 45.9852 29.6395 45.8219 29.4716C45.6586 29.3038 45.529 29.1044 45.4406 28.8849C45.3522 28.6655 45.3067 28.4303 45.3066 28.1927C45.3087 27.7149 45.4944 27.2573 45.8232 26.92C46.1521 26.5827 46.5973 26.3931 47.0615 26.3926C47.5258 26.3921 47.9714 26.5808 48.3009 26.9174C48.6304 27.254 48.817 27.7112 48.82 28.189V28.189Z" fill="#196F92"/>
<path d="M41.7671 28.1956C41.8152 29.1346 41.0207 29.9936 40.0274 29.9962C39.7975 29.9956 39.57 29.9484 39.3578 29.8573C39.1457 29.7662 38.953 29.633 38.7909 29.4653C38.6287 29.2975 38.5003 29.0986 38.4128 28.8798C38.3254 28.6609 38.2807 28.4265 38.2813 28.1899C38.2818 27.9533 38.3277 27.7191 38.4162 27.5008C38.5047 27.2824 38.6341 27.0841 38.7971 26.9172C38.9601 26.7503 39.1534 26.6181 39.366 26.5281C39.5786 26.4381 39.8063 26.3921 40.0362 26.3927C40.2661 26.3898 40.4942 26.4346 40.7068 26.5244C40.9195 26.6142 41.1124 26.7473 41.2739 26.9156C41.4355 27.0839 41.5625 27.284 41.6472 27.5039C41.7319 27.7238 41.7727 27.9591 41.7671 28.1956Z" fill="#196F92"/>
<path d="M18.6063 7.65485C18.6155 7.53633 18.6697 7.42632 18.7573 7.34871C18.8448 7.2711 18.9585 7.23215 19.0738 7.24033C19.1846 7.25207 19.2874 7.30496 19.3631 7.38912C19.4388 7.47327 19.4821 7.58292 19.4849 7.69755C19.4819 7.75846 19.4672 7.81815 19.4416 7.87317C19.416 7.92818 19.38 7.97742 19.3358 8.01802C19.2916 8.05863 19.24 8.0898 19.184 8.10972C19.128 8.12964 19.0687 8.13792 19.0095 8.13408C18.8948 8.12435 18.7883 8.06873 18.7129 7.97915C18.6375 7.88956 18.5992 7.77314 18.6063 7.65485V7.65485Z" fill="#3093BB"/>
<path d="M31.3619 7.69687C31.3643 7.75408 31.3554 7.81119 31.3356 7.8647C31.3158 7.91821 31.2856 7.967 31.2468 8.00807C31.2081 8.04914 31.1616 8.08162 31.1102 8.10351C31.0588 8.12541 31.0035 8.13627 30.9479 8.13542C30.8908 8.13606 30.834 8.12511 30.781 8.10318C30.7279 8.08126 30.6796 8.0488 30.6387 8.00765C30.5978 7.9665 30.5652 7.91746 30.5428 7.86335C30.5203 7.80923 30.5085 7.7511 30.5078 7.69226C30.5072 7.63342 30.5179 7.57503 30.5392 7.52042C30.5605 7.46582 30.592 7.41606 30.632 7.374C30.672 7.33194 30.7196 7.2984 30.7722 7.27529C30.8248 7.25218 30.8812 7.23995 30.9384 7.23931C30.9961 7.23842 31.0533 7.24981 31.1065 7.27278C31.1596 7.29575 31.2076 7.32979 31.2474 7.37276C31.2872 7.41574 31.3179 7.46671 31.3376 7.52249C31.3573 7.57827 31.3656 7.63764 31.3619 7.69687V7.69687Z" fill="#3093BB"/>
</svg>
