<svg width="28" height="32" viewBox="0 0 28 32" fill="none" xmlns="http://www.w3.org/2000/svg">
<path fill-rule="evenodd" clip-rule="evenodd" d="M27.9921 19.1381C27.9921 17.5019 26.8284 16.1376 25.2983 15.853V5.7762C25.2983 4.46895 24.6585 3.25701 23.5869 2.53426C22.5804 1.85549 21.3308 1.70144 20.2009 2.10614L16.4805 0.822528C13.6216 -0.1639 10.6124 -0.265095 7.77808 0.529785C4.06757 1.57042 1.94031 3.77097 1.61194 6.89899C1.32134 7.28856 1.09045 7.72609 0.933566 8.19819L0.644973 9.06641C0.490085 9.53255 0.660825 10.0224 1.07001 10.2853C1.47905 10.5483 1.98771 10.4951 2.33564 10.1529C2.45445 10.036 2.58438 9.93748 2.72112 9.85511V15.8531C1.19105 16.1377 0.0273438 17.5019 0.0273438 19.1382C0.0273438 20.8399 1.28594 22.2475 2.90645 22.4522C3.31342 24.7363 4.38283 26.8433 6.01801 28.5293C8.1529 30.7306 10.991 31.9429 14.0097 31.9429H14.0108C17.0257 31.9426 19.8601 30.749 21.9919 28.5821C23.6572 26.8894 24.7381 24.761 25.1316 22.4498C26.7431 22.2366 27.9921 20.8332 27.9921 19.1381ZM22.9319 3.53819C23.6828 4.04454 24.1134 4.86028 24.1134 5.77623V13.6587C22.274 13.3681 20.8618 11.7475 20.8618 9.79769L20.8127 3.17482C21.5363 2.98094 22.2909 3.10593 22.9319 3.53819ZM2.0568 8.58379L1.94162 8.93021C3.00584 8.19 4.40955 8.15845 5.52303 8.89686C7.80169 10.4083 10.5287 10.9558 13.2018 10.4384C15.8123 9.93313 18.1031 8.46362 19.6738 6.29281L19.6276 3.18038L16.1 1.96325C13.4667 1.05475 10.6983 0.960558 8.09377 1.69106C5.47081 2.42669 3.80369 3.74117 3.11488 5.60779C3.21732 5.55335 3.3214 5.50132 3.42843 5.45471C4.60421 4.94294 5.94369 4.96425 7.10318 5.51322C8.42547 6.13921 10.0241 5.80084 10.9906 4.69025L11.1374 4.52152C11.3542 4.27237 11.7287 4.2491 11.9739 4.46949C12.219 4.68988 12.242 5.07056 12.0251 5.31971L11.8783 5.48845C10.5667 6.99553 8.39732 7.45483 6.60281 6.60528C5.74836 6.20073 4.76132 6.18507 3.89495 6.56214C3.02851 6.93921 2.35851 7.67612 2.0568 8.58379ZM1.21253 19.1381C1.21253 18.1696 1.85023 17.3501 2.72112 17.0894V20.3543C2.72112 20.6363 2.73112 20.9168 2.7506 21.1955C1.86475 20.9445 1.21253 20.1175 1.21253 19.1381ZM14.0108 30.738C16.7091 30.7377 19.2459 29.6695 21.1539 27.7301C23.0622 25.7904 24.1131 23.2114 24.113 20.4681V14.8732C21.6182 14.574 19.6762 12.4126 19.6762 9.79759V8.16303C18.0084 9.94561 15.8385 11.1543 13.423 11.6219C10.4473 12.1979 7.41157 11.5884 4.87483 9.90578C4.57497 9.70693 4.24194 9.59655 3.90631 9.5711V20.3542C3.90631 23.1152 4.95601 25.7182 6.86201 27.6835C8.77231 29.6531 11.311 30.738 14.0097 30.738H14.0108ZM25.2754 21.1935C25.2901 20.953 25.2983 20.7112 25.2983 20.4682V17.0894C26.1692 17.3501 26.8069 18.1696 26.8069 19.1381C26.8069 20.1151 26.158 20.9404 25.2754 21.1935ZM7.87443 16.1035C7.26858 16.1035 6.69895 16.3433 6.2705 16.7788C6.03902 17.0141 6.03902 17.3954 6.2705 17.6307C6.50199 17.866 6.87717 17.8659 7.1085 17.6307C7.3131 17.4228 7.5851 17.3082 7.87443 17.3082C8.16376 17.3082 8.43576 17.4228 8.64036 17.6307C8.75606 17.7483 8.90769 17.8072 9.05939 17.8071C9.21102 17.8071 9.36273 17.7483 9.47843 17.6307C9.70991 17.3955 9.70991 17.0141 9.47843 16.7788C9.04991 16.3434 8.48028 16.1035 7.87443 16.1035ZM8.9832 19.7192C8.9832 20.3419 8.4866 20.8467 7.87401 20.8467C7.26142 20.8467 6.76483 20.3419 6.76483 19.7192C6.76483 19.0966 7.26142 18.5918 7.87401 18.5918C8.4866 18.5918 8.9832 19.0966 8.9832 19.7192ZM21.2547 19.7192C21.2547 20.3419 20.7581 20.8467 20.1455 20.8467C19.5329 20.8467 19.0363 20.3419 19.0363 19.7192C19.0363 19.0966 19.5329 18.5918 20.1455 18.5918C20.7581 18.5918 21.2547 19.0966 21.2547 19.7192ZM18.5415 17.6307C18.31 17.3954 18.31 17.0141 18.5415 16.7789C19.426 15.8799 20.8651 15.88 21.7494 16.7789C21.9809 17.0142 21.9809 17.3955 21.7494 17.6307C21.6337 17.7483 21.4821 17.8071 21.3304 17.8071C21.1787 17.8071 21.027 17.7483 20.9113 17.6307C20.489 17.2015 19.8018 17.2014 19.3795 17.6307C19.1481 17.866 18.7729 17.866 18.5415 17.6307ZM15.1514 24.5064C14.8465 24.8162 14.4412 24.9869 14.01 24.9869C13.5789 24.9869 13.1736 24.8163 12.8688 24.5064C12.6374 24.2712 12.2622 24.2712 12.0308 24.5064C11.7993 24.7416 11.7993 25.123 12.0308 25.3583C12.5594 25.8957 13.2624 26.1916 14.0101 26.1916C14.7578 26.1916 15.4608 25.8956 15.9894 25.3583C16.2209 25.123 16.2209 24.7417 15.9894 24.5064C15.7579 24.2712 15.3828 24.2712 15.1514 24.5064Z" fill="white"/>
</svg>
