<svg width="22" height="22" viewBox="0 0 22 22" fill="none" xmlns="http://www.w3.org/2000/svg">
<path fill-rule="evenodd" clip-rule="evenodd" d="M0.916992 7.01431C0.916992 4.63708 2.76382 2.70996 5.04199 2.70996C7.32017 2.70996 9.16699 4.63708 9.16699 7.01431V14.9853C9.16699 17.3626 7.32017 19.2897 5.04199 19.2897C2.76382 19.2897 0.916992 17.3625 0.916992 14.9853V7.01431ZM5.04199 4.623C3.77634 4.623 2.75033 5.69363 2.75033 7.01431V14.9853C2.75033 16.306 3.77634 17.3766 5.04199 17.3766C6.30765 17.3766 7.33366 16.306 7.33366 14.9853V7.01431C7.33366 5.69363 6.30764 4.623 5.04199 4.623Z" fill="#3093BB"/>
<path fill-rule="evenodd" clip-rule="evenodd" d="M15.584 7.373C13.5218 7.373 11.9173 9.03474 11.9173 10.9998C11.9173 12.9649 13.5218 14.6266 15.584 14.6266C17.6462 14.6266 19.2507 12.9649 19.2507 10.9998C19.2507 9.03474 17.6462 7.373 15.584 7.373ZM10.084 10.9998C10.084 7.90228 12.5836 5.45996 15.584 5.45996C18.5844 5.45996 21.084 7.90228 21.084 10.9998C21.084 14.0974 18.5844 16.5397 15.584 16.5397C12.5836 16.5397 10.084 14.0974 10.084 10.9998Z" fill="#3093BB"/>
<path fill-rule="evenodd" clip-rule="evenodd" d="M15.5837 5.45996C16.0899 5.45996 16.5003 5.88821 16.5003 6.41648V15.5831C16.5003 16.1114 16.0899 16.5397 15.5837 16.5397C15.0774 16.5397 14.667 16.1114 14.667 15.5831V6.41648C14.667 5.88821 15.0774 5.45996 15.5837 5.45996Z" fill="#3093BB"/>
<path fill-rule="evenodd" clip-rule="evenodd" d="M0.916992 10.9995C0.916992 10.4712 1.3274 10.043 1.83366 10.043H8.25033C8.75659 10.043 9.16699 10.4712 9.16699 10.9995C9.16699 11.5278 8.75659 11.956 8.25033 11.956H1.83366C1.3274 11.956 0.916992 11.5278 0.916992 10.9995Z" fill="#3093BB"/>
</svg>
