<svg width="32" height="32" viewBox="0 0 32 32" fill="none" xmlns="http://www.w3.org/2000/svg">
<path fill-rule="evenodd" clip-rule="evenodd" d="M9.6 0H22.4C27.7019 0 32 4.29807 32 9.6V22.4C32 27.7019 27.7019 32 22.4 32H9.6C4.29807 32 0 27.7019 0 22.4V9.6C0 4.29807 4.29807 0 9.6 0Z" fill="url(#paint0_linear_116_12109)"/>
<path fill-rule="evenodd" clip-rule="evenodd" d="M16 8.8002C14.0118 8.8002 12.4 10.412 12.4 12.4002C12.4 14.3884 14.0118 16.0002 16 16.0002C17.9883 16.0002 19.6 14.3884 19.6 12.4002C19.6 10.412 17.9883 8.8002 16 8.8002ZM10.8 12.4002C10.8 9.52831 13.1282 7.2002 16 7.2002C18.8719 7.2002 21.2001 9.52831 21.2001 12.4002C21.2001 15.2721 18.8719 17.6002 16 17.6002C13.1282 17.6002 10.8 15.2721 10.8 12.4002Z" fill="white"/>
<path fill-rule="evenodd" clip-rule="evenodd" d="M16 17.6C12.508 17.6 9.67308 19.7939 8.97058 22.6092C8.93503 22.7516 8.97062 22.8756 9.07247 22.9856C9.18396 23.1059 9.3738 23.2 9.60002 23.2H22.4C22.6262 23.2 22.8161 23.1059 22.9276 22.9856C23.0294 22.8756 23.065 22.7516 23.0295 22.6092C22.327 19.7939 19.492 17.6 16 17.6ZM7.41818 22.2218C8.31977 18.6087 11.8652 16 16 16C20.1348 16 23.6803 18.6087 24.5819 22.2218C24.9559 23.7205 23.6537 24.8 22.4 24.8H9.60002C8.34637 24.8 7.04418 23.7205 7.41818 22.2218Z" fill="white"/>
<defs>
<linearGradient id="paint0_linear_116_12109" x1="-8.70734e-07" y1="32" x2="32" y2="2.94396e-06" gradientUnits="userSpaceOnUse">
<stop stop-color="#3093BB"/>
<stop offset="1" stop-color="#82DBFF"/>
</linearGradient>
</defs>
</svg>
