<svg width="22" height="22" viewBox="0 0 22 22" fill="none" xmlns="http://www.w3.org/2000/svg">
<path fill-rule="evenodd" clip-rule="evenodd" d="M3.66699 3.66667C3.66699 3.16041 4.0774 2.75 4.58366 2.75H17.417C17.9233 2.75 18.3337 3.16041 18.3337 3.66667V18.3333C18.3337 19.8521 17.1024 21.0833 15.5837 21.0833H6.41699C4.89821 21.0833 3.66699 19.8521 3.66699 18.3333V3.66667ZM5.50033 4.58333V18.3333C5.50033 18.8396 5.91073 19.25 6.41699 19.25H15.5837C16.0899 19.25 16.5003 18.8396 16.5003 18.3333V4.58333H5.50033Z" fill="#9393AA"/>
<path fill-rule="evenodd" clip-rule="evenodd" d="M14.4375 10.9993H7.5625V9.16602H14.4375V10.9993Z" fill="#9393AA"/>
<path fill-rule="evenodd" clip-rule="evenodd" d="M14.4375 15.1243H7.5625V13.291H14.4375V15.1243Z" fill="#9393AA"/>
<path fill-rule="evenodd" clip-rule="evenodd" d="M13.75 5.95801V1.83301H15.5833V5.95801H13.75Z" fill="#9393AA"/>
<path fill-rule="evenodd" clip-rule="evenodd" d="M10.084 5.95801V1.83301H11.9173V5.95801H10.084Z" fill="#9393AA"/>
<path fill-rule="evenodd" clip-rule="evenodd" d="M6.41699 5.95801V1.83301H8.25033V5.95801H6.41699Z" fill="#9393AA"/>
</svg>
