<svg width="116" height="116" viewBox="0 0 116 116" fill="none" xmlns="http://www.w3.org/2000/svg">
<path d="M116 57.9991C116 89.9105 90.0898 115.886 58.2051 116H58.0009C26.022 116 0 89.9798 0 57.9991C0 26.0202 26.022 0 58.0009 0H58.2051C90.0898 0.113633 116 26.0895 116 57.9991Z" fill="url(#paint0_linear_116_14216)"/>
<path fill-rule="evenodd" clip-rule="evenodd" d="M58.5 38.6247C47.5234 38.6247 38.625 47.523 38.625 58.4997C38.625 69.4763 47.5234 78.3747 58.5 78.3747C69.4767 78.3747 78.375 69.4763 78.375 58.4997C78.375 47.523 69.4767 38.6247 58.5 38.6247ZM34.2084 58.4997C34.2084 45.0838 45.0841 34.208 58.5 34.208C71.916 34.208 82.7917 45.0838 82.7917 58.4997C82.7917 71.9156 71.916 82.7913 58.5 82.7913C45.0841 82.7913 34.2084 71.9156 34.2084 58.4997Z" fill="white"/>
<path fill-rule="evenodd" clip-rule="evenodd" d="M41.4802 72.3962L72.3969 41.4795L75.5199 44.6025L44.6033 75.5192L41.4802 72.3962Z" fill="white"/>
<defs>
<linearGradient id="paint0_linear_116_14216" x1="22" y1="105.5" x2="94.5" y2="14.5" gradientUnits="userSpaceOnUse">
<stop stop-color="#E04165"/>
<stop offset="1" stop-color="#F8446C"/>
</linearGradient>
</defs>
</svg>
