<svg width="22" height="22" viewBox="0 0 22 22" fill="none" xmlns="http://www.w3.org/2000/svg">
<path fill-rule="evenodd" clip-rule="evenodd" d="M7.79072 9.62565C7.79072 8.36 8.81673 7.33398 10.0824 7.33398H13.2907V9.16732H10.0824C9.82925 9.16732 9.62405 9.37252 9.62405 9.62565C9.62405 9.87878 9.82925 10.084 10.0824 10.084H11.9157C13.1814 10.084 14.2074 11.11 14.2074 12.3757C14.2074 13.6413 13.1814 14.6673 11.9157 14.6673H8.70738V12.834H11.9157C12.1688 12.834 12.3741 12.6288 12.3741 12.3757C12.3741 12.1225 12.1688 11.9173 11.9157 11.9173H10.0824C8.81673 11.9173 7.79072 10.8913 7.79072 9.62565Z" fill="#9393AA"/>
<path fill-rule="evenodd" clip-rule="evenodd" d="M10.0824 16.0417V13.75H11.9157V16.0417H10.0824Z" fill="#9393AA"/>
<path fill-rule="evenodd" clip-rule="evenodd" d="M10.0824 8.25065V5.95898H11.9157V8.25065H10.0824Z" fill="#9393AA"/>
<path fill-rule="evenodd" clip-rule="evenodd" d="M10.9991 2.75033C6.4427 2.75033 2.74905 6.44398 2.74905 11.0003C2.74905 15.5567 6.4427 19.2503 10.9991 19.2503C15.5554 19.2503 19.2491 15.5567 19.2491 11.0003C19.2491 6.44398 15.5554 2.75033 10.9991 2.75033ZM0.915718 11.0003C0.915718 5.43145 5.43018 0.916992 10.9991 0.916992C16.5679 0.916992 21.0824 5.43145 21.0824 11.0003C21.0824 16.5692 16.5679 21.0837 10.9991 21.0837C5.43018 21.0837 0.915718 16.5692 0.915718 11.0003Z" fill="#9393AA"/>
</svg>
