<svg width="18" height="18" viewBox="0 0 18 18" fill="none" xmlns="http://www.w3.org/2000/svg">
<path fill-rule="evenodd" clip-rule="evenodd" d="M5.87208 0.632991C5.02809 -0.210997 3.65971 -0.210997 2.81572 0.632991L1.42457 2.02414C-0.00890672 3.45762 -0.402825 5.62995 0.436058 7.47549C2.46871 11.9473 6.0527 15.5313 10.5245 17.564C12.3701 18.4029 14.5424 18.0089 15.9759 16.5755L17.367 15.1843C18.211 14.3403 18.211 12.9719 17.367 12.128L15.4956 10.2565C14.8379 9.59877 13.833 9.4357 13.0009 9.85171L11.9624 10.371C11.4533 10.6255 10.8384 10.5258 10.436 10.1233L7.87673 7.56406C7.47426 7.16159 7.37449 6.54674 7.62903 6.03766L8.14832 4.99908C8.56433 4.16706 8.40126 3.16218 7.74349 2.5044L5.87208 0.632991Z" fill="white"/>
</svg>
