<svg width="24" height="24" viewBox="0 0 24 24" fill="none" xmlns="http://www.w3.org/2000/svg">
<rect opacity="0.01" width="24" height="24" fill="black"/>
<path fill-rule="evenodd" clip-rule="evenodd" d="M15.0256 8.38738L13.7931 7.11919L7.63057 13.4627C6.60934 14.5133 6.60934 16.2178 7.63057 17.2685C8.65118 18.3192 10.3069 18.3192 11.3281 17.2685L18.7232 9.65683C20.4256 7.90548 20.4256 5.06532 18.7232 3.31398C17.0219 1.56201 14.2624 1.56201 12.5612 3.31398L4.79579 11.305L4.7964 11.3057C4.79094 11.3113 4.78486 11.3169 4.78001 11.3219C2.40666 13.7652 2.40666 17.7254 4.78001 20.168C7.15274 22.6107 11.0008 22.6107 13.3748 20.168C13.3803 20.1624 13.3845 20.1568 13.3906 20.1511L13.3912 20.1518L18.691 14.6965L17.4579 13.4283L12.1581 18.8836H12.1575C12.152 18.8886 12.1465 18.8948 12.1417 18.8998C10.4514 20.6393 7.70221 20.6393 6.01191 18.8998C4.32222 17.1604 4.32222 14.3308 6.01191 12.5914C6.01738 12.5857 6.02345 12.5801 6.02891 12.5751L6.0283 12.5739L13.7937 4.58217C14.8131 3.53274 16.4719 3.53274 17.4913 4.58217C18.5107 5.6316 18.5107 7.3392 17.4913 8.38801L10.0956 15.999C9.75559 16.3491 9.20308 16.3491 8.86308 15.999C8.52368 15.6497 8.52368 15.0802 8.86308 14.7309L15.0256 8.38738Z" fill="white"/>
</svg>
