<svg width="32" height="32" viewBox="0 0 32 32" fill="none" xmlns="http://www.w3.org/2000/svg">
<path fill-rule="evenodd" clip-rule="evenodd" d="M9.6 0H22.4C27.7019 0 32 4.29807 32 9.6V22.4C32 27.7019 27.7019 32 22.4 32H9.6C4.29807 32 0 27.7019 0 22.4V9.6C0 4.29807 4.29807 0 9.6 0Z" fill="url(#paint0_linear_116_12116)"/>
<path fill-rule="evenodd" clip-rule="evenodd" d="M14 8.8C14 8.35817 14.3582 8 14.8 8H17.2C17.6418 8 18 8.35817 18 8.8V9.91893C18.3061 10.0195 18.6019 10.1426 18.8855 10.2861L19.677 9.49462C19.9894 9.1822 20.4959 9.1822 20.8083 9.49462L22.5054 11.1917C22.6554 11.3417 22.7397 11.5452 22.7397 11.7574C22.7397 11.9695 22.6554 12.173 22.5054 12.323L21.714 13.1145C21.8574 13.3981 21.9805 13.6939 22.0811 14H23.2C23.6418 14 24 14.3582 24 14.8V17.2C24 17.6418 23.6418 18 23.2 18H22.0811C21.9805 18.3061 21.8574 18.6019 21.7139 18.8855L22.5054 19.677C22.8178 19.9894 22.8178 20.4959 22.5054 20.8083L20.8083 22.5054C20.4959 22.8178 19.9894 22.8178 19.677 22.5054L18.8855 21.7139C18.6019 21.8574 18.3061 21.9805 18 22.0811V23.2C18 23.6418 17.6418 24 17.2 24H14.8C14.3582 24 14 23.6418 14 23.2V22.0811C13.6939 21.9805 13.3981 21.8574 13.1145 21.714L12.323 22.5054C12.173 22.6554 11.9695 22.7397 11.7574 22.7397C11.5452 22.7397 11.3417 22.6554 11.1917 22.5054L9.49462 20.8083C9.1822 20.4959 9.1822 19.9894 9.49462 19.677L10.2861 18.8855C10.1426 18.6019 10.0195 18.3061 9.91893 18H8.8C8.35817 18 8 17.6418 8 17.2V14.8C8 14.3582 8.35817 14 8.8 14H9.91893C10.0195 13.6939 10.1426 13.3981 10.2861 13.1145L9.49462 12.323C9.1822 12.0106 9.1822 11.5041 9.49462 11.1917L11.1917 9.49462C11.5041 9.1822 12.0106 9.1822 12.323 9.49462L13.1145 10.2861C13.3981 10.1426 13.6939 10.0195 14 9.91893V8.8ZM15.6 9.6V10.5289C15.6 10.9049 15.3381 11.2302 14.9706 11.3105C14.4082 11.4333 13.8824 11.6548 13.4122 11.9565C13.0957 12.1596 12.6804 12.1148 12.4145 11.8488L11.7574 11.1917L11.1917 11.7574L11.8488 12.4145C12.1148 12.6804 12.1596 13.0957 11.9565 13.4122C11.6548 13.8824 11.4333 14.4082 11.3105 14.9706C11.2302 15.3381 10.9049 15.6 10.5289 15.6H9.6V16.4H10.5289C10.9049 16.4 11.2302 16.6619 11.3105 17.0294C11.4333 17.5918 11.6548 18.1176 11.9565 18.5878C12.1596 18.9043 12.1148 19.3196 11.8488 19.5855L11.1917 20.2426L11.7574 20.8083L12.4145 20.1512C12.6804 19.8852 13.0957 19.8404 13.4122 20.0435C13.8824 20.3452 14.4082 20.5667 14.9706 20.6895C15.3381 20.7698 15.6 21.0951 15.6 21.4711V22.4H16.4V21.4711C16.4 21.0951 16.6619 20.7698 17.0294 20.6895C17.5918 20.5667 18.1176 20.3452 18.5878 20.0435C18.9043 19.8404 19.3196 19.8852 19.5855 20.1512L20.2426 20.8083L20.8083 20.2426L20.1512 19.5855C19.8852 19.3196 19.8404 18.9043 20.0435 18.5878C20.3452 18.1176 20.5667 17.5918 20.6895 17.0294C20.7698 16.6619 21.0951 16.4 21.4711 16.4H22.4V15.6H21.4711C21.0951 15.6 20.7698 15.3381 20.6895 14.9706C20.5667 14.4082 20.3452 13.8824 20.0435 13.4122C19.8404 13.0957 19.8852 12.6804 20.1512 12.4145L20.8083 11.7574L20.2426 11.1917L19.5855 11.8488C19.3196 12.1148 18.9043 12.1596 18.5878 11.9565C18.1176 11.6548 17.5918 11.4333 17.0294 11.3105C16.6619 11.2302 16.4 10.9049 16.4 10.5289V9.6H15.6Z" fill="white"/>
<path fill-rule="evenodd" clip-rule="evenodd" d="M16 14.3998C15.1163 14.3998 14.4 15.1161 14.4 15.9998C14.4 16.8835 15.1163 17.5998 16 17.5998C16.8836 17.5998 17.6 16.8835 17.6 15.9998C17.6 15.1161 16.8836 14.3998 16 14.3998ZM12.8 15.9998C12.8 14.2325 14.2327 12.7998 16 12.7998C17.7673 12.7998 19.2 14.2325 19.2 15.9998C19.2 17.7671 17.7673 19.1998 16 19.1998C14.2327 19.1998 12.8 17.7671 12.8 15.9998Z" fill="white"/>
<defs>
<linearGradient id="paint0_linear_116_12116" x1="-8.70734e-07" y1="32" x2="32" y2="2.94396e-06" gradientUnits="userSpaceOnUse">
<stop stop-color="#3093BB"/>
<stop offset="1" stop-color="#82DBFF"/>
</linearGradient>
</defs>
</svg>
