<svg width="32" height="32" viewBox="0 0 32 32" fill="none" xmlns="http://www.w3.org/2000/svg">
<path fill-rule="evenodd" clip-rule="evenodd" d="M9.6 0H22.4C27.7019 0 32 4.29807 32 9.6V22.4C32 27.7019 27.7019 32 22.4 32H9.6C4.29807 32 0 27.7019 0 22.4V9.6C0 4.29807 4.29807 0 9.6 0Z" fill="url(#paint0_linear_116_12123)"/>
<path fill-rule="evenodd" clip-rule="evenodd" d="M11.2 14.3998C10.3163 14.3998 9.6 15.1161 9.6 15.9998C9.6 16.8835 10.3163 17.5998 11.2 17.5998C12.0837 17.5998 12.8 16.8835 12.8 15.9998C12.8 15.1161 12.0837 14.3998 11.2 14.3998ZM8 15.9998C8 14.2325 9.43269 12.7998 11.2 12.7998C12.9673 12.7998 14.4 14.2325 14.4 15.9998C14.4 17.7671 12.9673 19.1998 11.2 19.1998C9.43269 19.1998 8 17.7671 8 15.9998Z" fill="white"/>
<path fill-rule="evenodd" clip-rule="evenodd" d="M20.8 9.6C19.9163 9.6 19.2 10.3163 19.2 11.2C19.2 12.0837 19.9163 12.8 20.8 12.8C21.6836 12.8 22.4 12.0837 22.4 11.2C22.4 10.3163 21.6836 9.6 20.8 9.6ZM17.6 11.2C17.6 9.43269 19.0327 8 20.8 8C22.5673 8 24 9.43269 24 11.2C24 12.9673 22.5673 14.4 20.8 14.4C19.0327 14.4 17.6 12.9673 17.6 11.2Z" fill="white"/>
<path fill-rule="evenodd" clip-rule="evenodd" d="M20.8 19.1996C19.9163 19.1996 19.2 19.916 19.2 20.7996C19.2 21.6833 19.9163 22.3996 20.8 22.3996C21.6836 22.3996 22.4 21.6833 22.4 20.7996C22.4 19.916 21.6836 19.1996 20.8 19.1996ZM17.6 20.7996C17.6 19.0323 19.0327 17.5996 20.8 17.5996C22.5673 17.5996 24 19.0323 24 20.7996C24 22.5669 22.5673 23.9996 20.8 23.9996C19.0327 23.9996 17.6 22.5669 17.6 20.7996Z" fill="white"/>
<path fill-rule="evenodd" clip-rule="evenodd" d="M18.7793 12.7047L13.5793 15.5047L12.8207 14.0959L18.0207 11.2959L18.7793 12.7047Z" fill="white"/>
<path fill-rule="evenodd" clip-rule="evenodd" d="M18.0207 20.7048L12.8207 17.9048L13.5793 16.4961L18.7793 19.2961L18.0207 20.7048Z" fill="white"/>
<defs>
<linearGradient id="paint0_linear_116_12123" x1="-8.70734e-07" y1="32" x2="32" y2="2.94396e-06" gradientUnits="userSpaceOnUse">
<stop stop-color="#3093BB"/>
<stop offset="1" stop-color="#82DBFF"/>
</linearGradient>
</defs>
</svg>
