<svg width="444" height="285" viewBox="0 0 444 285" fill="none" xmlns="http://www.w3.org/2000/svg">
<path d="M0 284.716H444C444 284.716 431.207 212.952 381.909 214.824C332.61 216.696 362.283 162.623 358.819 126.211C354.451 80.3446 238.194 28.0817 196.883 127.147C172.545 185.494 141.032 171.766 117.318 165.837C103.87 162.467 82.3725 176.758 85.8046 211.392C91.2649 266.525 73.0119 270.363 47.4266 264.747C21.8412 259.13 0 284.716 0 284.716Z" fill="url(#paint0_linear_116_8519)"/>
<path d="M134.168 18.6276V263.873C134.168 275.106 143.279 284.216 154.512 284.216H262.001C273.234 284.216 282.345 275.106 282.345 263.873V20.4997C282.345 9.26713 273.234 0.15625 262.001 0.15625H152.639C142.436 0.15625 134.168 8.42468 134.168 18.6276Z" fill="#888889"/>
<path d="M146.648 18.4714V263.717C146.648 274.949 155.759 284.06 166.992 284.06H274.482C285.714 284.06 294.825 274.949 294.825 263.717V20.3435C294.825 9.11088 285.714 0 274.482 0H165.12C154.917 0 146.648 8.26843 146.648 18.4714Z" fill="#A8ADAC"/>
<path d="M287.494 21.7168H153.67V260.098H287.494V21.7168Z" fill="white"/>
<path d="M323.281 41.0615H251.735C250.051 41.0615 248.646 42.4344 248.646 44.1505V74.9465C248.646 76.6626 250.019 78.0355 251.735 78.0355H256.01V87.1152L268.366 78.0355H323.25C324.966 78.0355 326.339 76.6626 326.339 74.9465V44.1505C326.339 42.4344 324.966 41.0615 323.281 41.0615Z" fill="#0C95BD"/>
<path d="M314.42 50.6406H259.941V52.3567H314.42V50.6406Z" fill="white"/>
<path d="M314.701 58.1602H260.223V59.8762H314.701V58.1602Z" fill="white"/>
<path d="M314.701 65.7109H260.223V67.427H314.701V65.7109Z" fill="white"/>
<path d="M415.668 93.418H316.072V139.628H415.668V93.418Z" fill="url(#paint1_linear_116_8519)"/>
<path d="M359.879 119.877C359.723 120.158 359.567 120.438 359.411 120.751C359.286 121 359.13 121.219 359.005 121.468C358.943 121.562 358.88 121.687 358.818 121.78C355.947 126.336 350.986 130.953 343.248 134.885C335.698 131.047 330.768 126.523 327.866 122.061C327.679 121.78 327.492 121.499 327.336 121.187C327.304 121.125 327.273 121.062 327.242 121.031C327.086 120.75 326.899 120.47 326.774 120.158C322.811 112.638 324.527 105.649 328.989 102.903C337.819 97.5053 342.406 106.71 343.28 108.707C344.153 106.71 348.74 97.5053 357.539 102.903C361.907 105.618 363.623 112.482 359.879 119.877Z" fill="url(#paint2_linear_116_8519)"/>
<path d="M359.88 119.878C359.724 120.158 359.568 120.439 359.412 120.751H356.947L355.606 124.807L354.763 119.129L352.766 126.274L349.833 111.703L347.556 120.782H343.687L342.439 124.558L341.066 118.785L338.944 129.02L335.668 111.765L333.421 121.063H327.212C327.056 120.782 326.869 120.502 326.744 120.19H332.735L335.761 107.678L338.975 124.589L340.972 114.792L342.532 121.406L343.031 119.909H346.838L349.864 107.771L352.829 122.592L354.95 115.041L355.855 121.126L356.261 119.878H359.88Z" fill="white"/>
<path d="M405.246 108.551H371.361V110.111H405.246V108.551Z" fill="white"/>
<path d="M405.402 116.102H371.518V117.662H405.402V116.102Z" fill="white"/>
<path d="M405.402 123.621H371.518V125.181H405.402V123.621Z" fill="white"/>
<path d="M443.065 157.101H343.469V203.31H443.065V157.101Z" fill="url(#paint3_linear_116_8519)"/>
<path d="M380.412 180.627L380.381 180.595C380.35 180.564 380.35 180.502 380.319 180.471L369.835 161.438L359.351 180.471C359.32 180.502 359.32 180.564 359.289 180.595L359.258 180.627C358.353 182.311 357.854 184.215 357.854 186.243C357.854 192.858 363.22 198.224 369.835 198.224C376.45 198.224 381.817 192.858 381.817 186.243C381.785 184.215 381.286 182.311 380.412 180.627Z" fill="url(#paint4_linear_116_8519)"/>
<path d="M368.897 181.406H370.52V184.776H373.796V186.336H370.52V189.706H368.897V186.336H365.621V184.776H368.897V181.406Z" fill="white"/>
<path d="M432.612 172.14H398.727V173.856H432.612V172.14Z" fill="white"/>
<path d="M432.799 179.69H398.914V181.407H432.799V179.69Z" fill="white"/>
<path d="M432.799 187.21H398.914V188.926H432.799V187.21Z" fill="white"/>
<path d="M121.656 31.4824H22.0605V77.6922H121.656V31.4824Z" fill="url(#paint5_linear_116_8519)"/>
<path d="M111.235 46.5527H77.3496V48.2688H111.235V46.5527Z" fill="white"/>
<path d="M111.391 54.0723H77.5059V55.7884H111.391V54.0723Z" fill="white"/>
<path d="M111.391 61.5918H77.5059V63.3079H111.391V61.5918Z" fill="white"/>
<path d="M49.8306 74.3537C60.7731 74.3537 69.6437 65.4831 69.6437 54.5406C69.6437 43.5982 60.7731 34.7275 49.8306 34.7275C38.8882 34.7275 30.0176 43.5982 30.0176 54.5406C30.0176 65.4831 38.8882 74.3537 49.8306 74.3537Z" fill="url(#paint6_linear_116_8519)"/>
<path d="M62.1549 45.3048L55.4776 41.7478C55.7584 40.7806 56.1953 40.5309 56.1953 40.5309L54.5416 39.0957C52.8879 41.9663 53.2936 44.868 53.824 46.7401C54.448 48.9554 54.6353 50.7963 54.5105 52.3252L52.1391 49.1114C52.8568 48.9242 53.356 48.893 53.356 48.893L53.1064 46.9897C47.6149 47.2394 44.994 50.7963 44.994 50.7963C41.4058 55.3206 43.5587 61.0617 43.5587 61.0617C44.1515 62.4345 44.3387 63.745 44.3075 64.8682L41.9049 61.5609C42.2169 61.5297 42.5289 61.5297 42.8722 61.5297L42.4041 59.6264C42.4041 59.6264 38.8159 59.1584 35.9766 61.5297L37.4119 63.1834C37.4119 63.1834 37.5055 63.0274 37.7551 62.809L43.9955 68.6125L45.0251 69.6421C47.8956 67.2708 45.9923 61.7793 45.9923 61.7793C49.0813 61.5297 51.4839 60.344 51.4839 60.344C58.629 55.8198 56.2577 49.1426 56.2577 49.1426C56.2577 49.0802 56.2266 49.049 56.2266 48.9866C60.9692 49.8915 63.9021 46.7401 63.9021 46.7401L62.1549 45.3048ZM43.9642 66.99L38.7536 62.1849C39.1905 61.9977 39.752 61.8105 40.5008 61.7169L44.1515 66.2723C44.0891 66.5219 44.0266 66.7716 43.9642 66.99ZM45.462 59.876C45.3372 59.3768 45.2435 58.8775 45.1811 58.4095L49.0502 59.2519C47.1469 59.876 45.462 59.876 45.462 59.876ZM50.7351 58.4719L45.0875 57.1927C45.0875 56.5686 45.1187 55.9758 45.2123 55.4142L51.2966 58.0663C51.1406 58.2224 50.9535 58.3471 50.7351 58.4719ZM52.3264 57.2551L45.5243 54.3533C45.7427 53.7293 46.0236 53.1677 46.3668 52.6684L52.6072 56.9743C52.5135 57.0679 52.42 57.1615 52.3264 57.2551ZM53.3247 56.007L47.2092 51.67C47.5524 51.3268 47.958 51.0148 48.3325 50.7339L53.6367 55.4766C53.5431 55.6638 53.4183 55.851 53.3247 56.007ZM54.0112 54.6029L49.487 50.0787C49.8614 49.8915 50.2358 49.7355 50.579 49.6107L54.2295 53.9477C54.1671 54.1661 54.0736 54.3845 54.0112 54.6029ZM55.6025 46.8649C55.5401 46.5529 55.4777 46.2409 55.4465 45.9601L60.0643 46.7713C58.5042 47.1769 56.5698 46.9897 55.6025 46.8649ZM61.3749 46.1785L55.3216 44.9928C55.228 44.2127 55.2281 43.5575 55.2593 43.0271L61.6556 45.9288C61.562 46.0224 61.4685 46.0849 61.3749 46.1785Z" fill="white"/>
<path d="M101.469 105.056H1.87305V151.265H101.469V105.056Z" fill="url(#paint7_linear_116_8519)"/>
<path d="M91.047 120.126H57.1621V121.842H91.047V120.126Z" fill="white"/>
<path d="M29.6417 147.522C40.3946 147.522 49.1115 138.805 49.1115 128.052C49.1115 117.299 40.3946 108.582 29.6417 108.582C18.8888 108.582 10.1719 117.299 10.1719 128.052C10.1719 138.805 18.8888 147.522 29.6417 147.522Z" fill="url(#paint8_linear_116_8519)"/>
<path d="M28.6735 116.694H19.625V119.846H20.9355V138.816C20.9355 140.532 22.3396 141.936 24.0557 141.936C25.7718 141.936 27.1759 140.532 27.1759 138.816V119.846H28.6423V116.694H28.6735Z" fill="white"/>
<path d="M39.6891 116.694H30.6406V119.846H31.951V138.816C31.951 140.532 33.3551 141.936 35.0712 141.936C36.7873 141.936 38.1913 140.532 38.1913 138.816V119.846H39.6579V116.694H39.6891Z" fill="white"/>
<path d="M21.998 125.057H26.1167V138.536C26.1167 139.69 25.1806 140.595 24.0574 140.595C22.9029 140.595 21.998 139.659 21.998 138.536V125.057V125.057Z" fill="#E3356F"/>
<path d="M33.043 129.861H37.1617V138.535C37.1617 139.69 36.2256 140.595 35.1023 140.595C33.9478 140.595 33.043 139.659 33.043 138.535V129.861V129.861Z" fill="#0598C1"/>
<path d="M91.2033 127.646H57.3184V129.362H91.2033V127.646Z" fill="white"/>
<path d="M91.2033 135.196H57.3184V136.912H91.2033V135.196Z" fill="white"/>
<path d="M153.482 219.597V278.849C153.482 281.813 151.079 284.247 148.084 284.247H99.222C97.3187 284.247 95.6651 283.28 94.6978 281.782C94.1674 280.94 93.8242 279.941 93.8242 278.849V219.597C93.8242 210.767 101.001 203.591 109.831 203.591H111.016V196.664H137.039V203.591H137.507C146.305 203.591 153.482 210.767 153.482 219.597Z" fill="url(#paint9_linear_116_8519)"/>
<path d="M138.568 181.251V197.507H108.988V181.251C108.988 179.816 110.143 178.661 111.578 178.661H136.009C137.382 178.661 138.568 179.816 138.568 181.251Z" fill="#223A7A"/>
<path d="M127.834 220.159H93.8242V268.584H127.834V220.159Z" fill="#0598C1"/>
<path d="M113.481 178.661H111.578V197.507H113.481V178.661Z" fill="#0598C1"/>
<path d="M118.036 178.661H116.133V197.507H118.036V178.661Z" fill="#0598C1"/>
<path d="M122.561 178.661H120.658V197.507H122.561V178.661Z" fill="#0598C1"/>
<path d="M127.085 178.661H125.182V197.507H127.085V178.661Z" fill="#0598C1"/>
<path d="M131.64 178.661H129.736V197.507H131.64V178.661Z" fill="#0598C1"/>
<path d="M136.165 178.661H134.262V197.507H136.165V178.661Z" fill="#0598C1"/>
<path opacity="0.2" d="M153.481 219.597V278.849C153.481 281.814 151.079 284.247 148.083 284.247H99.2215C97.3182 284.247 95.6645 283.28 94.6973 281.782C131.983 267.866 135.727 226.15 133.231 196.695H137.007V203.622H137.475C146.305 203.591 153.481 210.767 153.481 219.597Z" fill="black"/>
<path d="M144.963 276.853C144.963 280.659 148.052 283.748 151.858 283.748H170.923C174.729 283.748 177.818 280.659 177.818 276.853C177.818 273.046 174.729 269.957 170.923 269.957H151.858C148.052 269.957 144.963 273.046 144.963 276.853Z" fill="#E3356F"/>
<path d="M144.963 276.853C144.963 280.659 148.052 283.748 151.858 283.748H161.188V269.957H151.858C148.052 269.957 144.963 273.046 144.963 276.853Z" fill="#0598C1"/>
<path d="M236.978 260.129H182.125C184.996 231.143 190.206 185.9 196.509 162.53L210.394 163.466L227.867 164.652L236.26 165.214C236.291 165.214 236.821 222.594 236.978 260.129Z" fill="url(#paint10_linear_116_8519)"/>
<path d="M220.409 61.9041C220.409 61.9041 229.52 59.5641 230.019 68.831C230.518 78.0979 228.053 88.2072 228.053 88.2072C228.053 88.2072 227.304 93.8235 230.3 98.8781C230.3 98.8781 214.512 98.1917 211.267 91.1402L209.457 64.4003L220.409 61.9041Z" fill="#0C2F3D"/>
<path d="M224.028 119.659L218.256 90.9218C218.256 90.9218 232.858 93.3868 225.027 66.5534C225.027 66.5534 219.13 61.5923 212.546 65.6485C205.962 69.7359 206.243 76.257 206.243 76.257L205.619 119.659H224.028Z" fill="#FFAAAD"/>
<path d="M224.683 65.5861C224.683 65.5861 222.436 69.4863 219.441 71.7328C216.914 73.6361 213.669 73.8234 212.545 74.6035C212.545 74.6035 210.424 87.6457 218.193 98.6911C218.193 98.6911 208.645 99.6896 200.97 91.3275C200.97 91.3275 202.405 93.5117 203.903 95.1966C203.903 95.1966 192.327 96.7254 197.007 69.9856C200.034 52.6687 220.876 59.0338 224.152 61.6235L224.683 65.5861Z" fill="#0C2F3D"/>
<path d="M307.025 118.691L294.95 125.961L288.242 126.273L285.028 129.924L280.972 134.541L275.293 127.958L280.223 124.12L285.714 119.846L288.647 117.225C290.488 115.633 292.735 116.507 292.735 116.507L290.395 119.377L295.917 119.159L303.343 116.788C305.528 117.256 307.025 118.691 307.025 118.691Z" fill="#FFA09F"/>
<path d="M205.963 110.798C205.963 110.798 217.539 117.693 227.586 108.863L231.892 167.928C231.892 167.928 219.099 173.669 207.305 167.928L205.963 110.798Z" fill="url(#paint11_linear_116_8519)"/>
<path opacity="0.1" d="M285.028 129.892L280.972 134.51L275.293 127.927L280.192 124.089L285.028 129.892Z" fill="black"/>
<path d="M210.424 163.466C210.237 169.176 209.956 175.229 209.551 181.563C207.897 206.774 205.338 235.823 203.061 260.129H174.137L184.621 196.54L189.426 167.397L189.457 167.273L180.034 171.079C173.95 173.513 167.709 167.959 169.488 161.625L183.841 112.826C184.402 110.891 185.9 109.362 187.834 108.738L202.967 103.871L205.775 103.028C205.775 103.028 210.674 122.623 210.674 132.14C210.643 135.821 211.08 142.186 210.424 163.466Z" fill="url(#paint12_linear_116_8519)"/>
<path d="M279.567 123.715L283.936 134.636L258.163 156.633C256.322 158.193 253.545 157.943 252.016 156.071L236.26 136.601L231.049 104.401C231.049 104.401 237.601 106.305 242.001 111.328L258.569 136.539L279.567 123.715Z" fill="url(#paint13_linear_116_8519)"/>
<path d="M248.926 260.128H232.421L228.209 180.72C228.115 175.104 228.021 169.737 227.897 164.651C226.867 126.117 220.377 103.246 220.377 103.246L232.265 104.588L235.978 115.384C240.689 126.835 239.004 138.629 239.004 138.629C236.633 152.763 239.004 162.561 239.004 162.561C243.841 181.968 247.054 225.338 248.926 260.128Z" fill="url(#paint14_linear_116_8519)"/>
<path d="M209.613 177.288H208.989C208.989 173.326 207.429 157.475 204.901 143.528C202.468 130.142 199.129 118.629 199.098 118.504L199.035 118.255L204.932 115.571L196.633 112.857L205.307 102.935L205.775 103.34L197.725 112.545L206.648 115.478L199.784 118.598C200.283 120.376 203.31 131.11 205.525 143.403C208.053 157.413 209.613 173.294 209.613 177.288Z" fill="#0C2F3D"/>
<path d="M228.833 175.26C228.177 158.067 229.8 119.752 229.956 116.195L223.435 114.884L230.33 109.861L220.439 103.808L220.751 103.277L231.423 109.83L224.932 114.572L230.58 115.727V116.008C230.549 116.413 228.77 157.381 229.457 175.291L228.833 175.26Z" fill="#0C2F3D"/>
<path d="M189.613 200.377L189.426 199.785C200.159 196.664 202.094 185.556 202.125 185.463L202.749 185.557C202.749 185.681 200.721 197.164 189.613 200.377Z" fill="#0C2F3D"/>
<path d="M242.905 197.944C233.575 195.198 231.766 185.464 231.734 185.37L232.358 185.245C232.39 185.339 234.137 194.668 243.092 197.32L242.905 197.944Z" fill="#0C2F3D"/>
<path d="M238.692 155.915L222.093 159.535L210.018 156.82L204.401 159.067L202.467 159.847L201.25 151.984H201.406L208.208 151.391L211.515 149.581C219.659 146.555 228.739 149.581 228.739 149.581C226.617 152.296 224.807 150.798 222.093 151.391C219.378 151.984 220.283 153.201 220.283 153.201L225.712 154.418L235.665 153.201C237.194 153.513 238.692 155.915 238.692 155.915Z" fill="#FFAAAD"/>
<path d="M237.819 127.459L236.82 127.428C237.07 118.254 234.293 111.234 228.864 107.178C224.745 104.089 220.471 103.746 220.408 103.746L220.471 102.747C220.658 102.747 225.026 103.121 229.394 106.335C233.419 109.331 238.131 115.415 237.819 127.459Z" fill="#123245"/>
<path opacity="0.1" d="M190.643 138.691L186.898 151.796L194.387 150.548L189.395 149.612L190.643 138.691Z" fill="black"/>
<path d="M237.196 131.515C239.195 131.515 240.815 129.895 240.815 127.896C240.815 125.897 239.195 124.276 237.196 124.276C235.197 124.276 233.576 125.897 233.576 127.896C233.576 129.895 235.197 131.515 237.196 131.515Z" fill="#A0A0A0"/>
<path d="M237.196 129.893C238.299 129.893 239.193 128.999 239.193 127.896C239.193 126.793 238.299 125.899 237.196 125.899C236.093 125.899 235.199 126.793 235.199 127.896C235.199 128.999 236.093 129.893 237.196 129.893Z" fill="#123245"/>
<path d="M199.035 145.494L202.249 144.558C203.684 144.121 204.557 142.655 204.214 141.188L201.656 130.268L200.72 130.486L203.278 141.407C203.497 142.374 202.935 143.341 201.999 143.622L198.785 144.558L199.035 145.494Z" fill="#A0A0A0"/>
<path d="M193.451 146.243L190.112 146.212C188.614 146.181 187.366 144.995 187.304 143.497L186.805 132.265L187.772 132.233L188.271 143.466C188.302 144.464 189.113 145.244 190.112 145.244L193.451 145.276V146.243Z" fill="#A0A0A0"/>
<path d="M199.971 144.682C200.096 145.15 199.815 145.649 199.347 145.805L198.536 146.024C198.068 146.148 197.568 145.868 197.412 145.4C197.288 144.932 197.568 144.432 198.036 144.276L198.848 144.058C199.316 143.933 199.815 144.214 199.971 144.682Z" fill="#123245"/>
<path d="M192.328 145.744C192.328 146.243 192.734 146.649 193.233 146.649H194.075C194.575 146.649 194.98 146.243 194.98 145.744C194.98 145.245 194.575 144.839 194.075 144.839H193.233C192.734 144.839 192.328 145.245 192.328 145.744Z" fill="#123245"/>
<path d="M200.252 126.523C198.63 123.809 196.477 122.405 193.981 122.436C193.762 115.072 195.697 109.456 199.628 106.211C202.686 103.652 205.931 103.403 205.962 103.403L205.931 102.904L205.9 102.404C205.744 102.404 202.343 102.654 199.035 105.4C196.102 107.833 192.701 112.763 192.982 122.498C191.297 122.748 189.8 123.621 188.739 124.963C187.304 126.742 186.586 129.269 186.555 132.514C186.555 132.732 186.711 132.888 186.929 132.888H187.584C187.772 132.888 187.928 132.732 187.959 132.514C187.99 125.088 191.953 123.965 193.638 123.84C198.193 123.497 200.096 129.3 200.502 130.767C200.564 130.954 200.751 131.079 200.939 131.016L201.594 130.86C201.812 130.829 201.906 130.611 201.875 130.423C201.719 129.706 201.219 128.115 200.252 126.523Z" fill="#0C2F3D"/>
<path opacity="0.1" d="M204.401 159.066L202.436 159.846L201.219 151.983H201.375L204.401 159.066Z" fill="black"/>
<path opacity="0.1" d="M194.387 165.525L184.621 196.54L189.426 167.366L194.387 165.525Z" fill="black"/>
<path d="M280.817 205.058C280.817 205.058 269.241 128.551 306.371 138.661C306.371 138.692 324.686 147.116 280.817 205.058Z" fill="url(#paint15_linear_116_8519)"/>
<path d="M290.363 205.058C290.363 205.058 308.055 162.873 333.952 175.791C333.952 175.822 342.689 185.931 290.363 205.058Z" fill="url(#paint16_linear_116_8519)"/>
<path d="M273.297 206.899C273.297 206.899 240.348 187.086 244.529 176.259C244.529 176.29 256.76 162.967 273.297 206.899Z" fill="url(#paint17_linear_116_8519)"/>
<path d="M267.836 222.281C267.836 222.281 242.063 207.866 240.659 217.476C240.659 217.476 239.786 225.37 267.836 222.281Z" fill="url(#paint18_linear_116_8519)"/>
<path d="M286.308 232.297C284.842 232.921 298.165 204.559 312.018 211.641C312.018 211.641 320.412 217.726 286.308 232.297Z" fill="url(#paint19_linear_116_8519)"/>
<path d="M280.191 240.222L279.068 240.191C279.255 235.604 277.789 231.641 274.762 228.365C265.901 218.849 246.275 218.194 246.088 218.194L246.119 217.07C246.93 217.102 266.4 217.757 275.573 227.585C278.818 231.08 280.378 235.323 280.191 240.222Z" fill="#0C2F3D"/>
<path d="M281.346 246.681L280.223 246.649C280.535 238.849 285.62 230.581 294.981 222.78C302.001 216.914 309.022 213.295 309.084 213.264L309.583 214.262C309.303 214.387 282.032 228.521 281.346 246.681Z" fill="#0C2F3D"/>
<path d="M281.971 243.716C280.161 232.453 281.44 221.938 285.809 212.546C289.303 205.026 294.732 198.193 301.971 192.202C314.265 182.062 327.744 177.85 327.869 177.818L328.212 178.879C328.087 178.91 314.795 183.06 302.658 193.076C291.519 202.281 279.069 218.505 283.094 243.529L281.971 243.716Z" fill="#0C2F3D"/>
<path d="M283.031 251.611C279.817 238.6 278.694 224.84 279.724 210.768C280.535 199.504 282.719 187.991 286.214 176.571C292.142 157.101 299.911 144.433 299.974 144.309L300.941 144.901C300.878 145.026 293.172 157.601 287.275 176.946C281.845 194.762 276.884 222.157 284.123 251.362L283.031 251.611Z" fill="#0C2F3D"/>
<path d="M281.097 247.367H279.974C280.161 220.44 271.768 203.342 264.716 193.732C257.04 183.31 249.24 179.223 249.146 179.192L249.646 178.193C249.958 178.349 257.727 182.437 265.559 193.014C272.766 202.749 281.284 220.097 281.097 247.367Z" fill="#0C2F3D"/>
<path d="M300.005 239.941L299.974 240.129L293.796 284.404H269.053V284.373L262.875 239.941H300.005Z" fill="url(#paint20_linear_116_8519)"/>
<path opacity="0.1" d="M299.974 240.129L293.796 284.404H269.053V284.373C288.991 269.614 296.947 250.613 299.974 240.129Z" fill="black"/>
<defs>
<linearGradient id="paint0_linear_116_8519" x1="222.062" y1="295.16" x2="220.814" y2="84.237" gradientUnits="userSpaceOnUse">
<stop stop-color="#D3E9FE"/>
<stop offset="1" stop-color="#E9F6FF"/>
</linearGradient>
<linearGradient id="paint1_linear_116_8519" x1="413.542" y1="115.262" x2="319.936" y2="117.758" gradientUnits="userSpaceOnUse">
<stop stop-color="#E4EDFF"/>
<stop offset="1" stop-color="#C7D8FF"/>
</linearGradient>
<linearGradient id="paint2_linear_116_8519" x1="324.533" y1="118.071" x2="361.942" y2="118.071" gradientUnits="userSpaceOnUse">
<stop stop-color="#E3356F"/>
<stop offset="1" stop-color="#E882AC"/>
</linearGradient>
<linearGradient id="paint3_linear_116_8519" x1="437.418" y1="181.358" x2="342.564" y2="178.862" gradientUnits="userSpaceOnUse">
<stop stop-color="#E4EDFF"/>
<stop offset="1" stop-color="#C7D8FF"/>
</linearGradient>
<linearGradient id="paint4_linear_116_8519" x1="357.839" y1="179.833" x2="381.798" y2="179.833" gradientUnits="userSpaceOnUse">
<stop stop-color="#E3356F"/>
<stop offset="1" stop-color="#E882AC"/>
</linearGradient>
<linearGradient id="paint5_linear_116_8519" x1="22.0673" y1="54.5811" x2="121.669" y2="54.5811" gradientUnits="userSpaceOnUse">
<stop stop-color="#E4EDFF"/>
<stop offset="1" stop-color="#C7D8FF"/>
</linearGradient>
<linearGradient id="paint6_linear_116_8519" x1="30.0068" y1="54.5532" x2="69.6441" y2="54.5532" gradientUnits="userSpaceOnUse">
<stop stop-color="#E3356F"/>
<stop offset="1" stop-color="#E882AC"/>
</linearGradient>
<linearGradient id="paint7_linear_116_8519" x1="1.87305" y1="128.17" x2="101.475" y2="128.17" gradientUnits="userSpaceOnUse">
<stop stop-color="#E4EDFF"/>
<stop offset="1" stop-color="#C7D8FF"/>
</linearGradient>
<linearGradient id="paint8_linear_116_8519" x1="10.1919" y1="128.052" x2="49.106" y2="128.052" gradientUnits="userSpaceOnUse">
<stop stop-color="#E3356F"/>
<stop offset="1" stop-color="#E882AC"/>
</linearGradient>
<linearGradient id="paint9_linear_116_8519" x1="119.485" y1="288.517" x2="129.313" y2="194.916" gradientUnits="userSpaceOnUse">
<stop stop-color="#2B233C"/>
<stop offset="1" stop-color="#635C70"/>
</linearGradient>
<linearGradient id="paint10_linear_116_8519" x1="210.488" y1="162.665" x2="209.552" y2="260.96" gradientUnits="userSpaceOnUse">
<stop stop-color="#29056B"/>
<stop offset="1" stop-color="#6C93F5"/>
</linearGradient>
<linearGradient id="paint11_linear_116_8519" x1="218.939" y1="161.729" x2="218.939" y2="110.981" gradientUnits="userSpaceOnUse">
<stop stop-color="#E3356F"/>
<stop offset="1" stop-color="#E882AC"/>
</linearGradient>
<linearGradient id="paint12_linear_116_8519" x1="191.658" y1="124.398" x2="186.138" y2="243.081" gradientUnits="userSpaceOnUse">
<stop stop-color="#DCE9FF"/>
<stop offset="1" stop-color="#B6D2FF"/>
</linearGradient>
<linearGradient id="paint13_linear_116_8519" x1="268.901" y1="143.293" x2="230.582" y2="101.235" gradientUnits="userSpaceOnUse">
<stop stop-color="#DCE9FF"/>
<stop offset="1" stop-color="#B6D2FF"/>
</linearGradient>
<linearGradient id="paint14_linear_116_8519" x1="234.215" y1="125.28" x2="235.151" y2="248.849" gradientUnits="userSpaceOnUse">
<stop stop-color="#DCE9FF"/>
<stop offset="1" stop-color="#B6D2FF"/>
</linearGradient>
<linearGradient id="paint15_linear_116_8519" x1="280.78" y1="194.019" x2="303.964" y2="133.633" gradientUnits="userSpaceOnUse">
<stop stop-color="#1C59EB"/>
<stop offset="1" stop-color="#6AF2ED"/>
</linearGradient>
<linearGradient id="paint16_linear_116_8519" x1="290.368" y1="189.209" x2="334.492" y2="189.209" gradientUnits="userSpaceOnUse">
<stop stop-color="#1C59EB"/>
<stop offset="1" stop-color="#6AF2ED"/>
</linearGradient>
<linearGradient id="paint17_linear_116_8519" x1="273.125" y1="203.742" x2="244.114" y2="173.656" gradientUnits="userSpaceOnUse">
<stop stop-color="#1C59EB"/>
<stop offset="1" stop-color="#6AF2ED"/>
</linearGradient>
<linearGradient id="paint18_linear_116_8519" x1="263.786" y1="221.005" x2="237.866" y2="216.685" gradientUnits="userSpaceOnUse">
<stop stop-color="#1C59EB"/>
<stop offset="1" stop-color="#6AF2ED"/>
</linearGradient>
<linearGradient id="paint19_linear_116_8519" x1="286.196" y1="221.41" x2="312.93" y2="221.41" gradientUnits="userSpaceOnUse">
<stop stop-color="#1C59EB"/>
<stop offset="1" stop-color="#6AF2ED"/>
</linearGradient>
<linearGradient id="paint20_linear_116_8519" x1="262.866" y1="262.179" x2="299.999" y2="262.179" gradientUnits="userSpaceOnUse">
<stop stop-color="#E3356F"/>
<stop offset="1" stop-color="#E882AC"/>
</linearGradient>
</defs>
</svg>
