<svg width="116" height="116" viewBox="0 0 116 116" fill="none" xmlns="http://www.w3.org/2000/svg">
<path d="M116 57.9991C116 89.9105 90.0898 115.886 58.2051 116H58.0009C26.022 116 0 89.9798 0 57.9991C0 26.0202 26.022 0 58.0009 0H58.2051C90.0898 0.113633 116 26.0895 116 57.9991Z" fill="url(#paint0_linear_116_13153)"/>
<path d="M78.4364 52.2381L58.0157 72.9424L53.6031 77.4156C52.5607 78.4723 51.1935 79 49.8277 79C48.4604 79 47.0946 78.4723 46.0508 77.4156L36.5636 67.7937C34.4788 65.6802 34.4788 62.2567 36.5636 60.1418C38.6457 58.0283 42.0269 58.0283 44.1117 60.1418L49.8277 65.9363L70.8883 44.5862C72.9731 42.4713 76.3543 42.4713 78.4364 44.5862C80.5212 46.6997 80.5212 50.1274 78.4364 52.2381Z" fill="white"/>
<defs>
<linearGradient id="paint0_linear_116_13153" x1="-3.15641e-06" y1="116" x2="116" y2="1.06719e-05" gradientUnits="userSpaceOnUse">
<stop stop-color="#3093BB"/>
<stop offset="1" stop-color="#82DBFF"/>
</linearGradient>
</defs>
</svg>
