<svg width="115" height="116" viewBox="0 0 115 116" fill="none" xmlns="http://www.w3.org/2000/svg">
<g id="img_sent_message">
<g id="img">
<path id="Path" fill-rule="evenodd" clip-rule="evenodd" d="M108.967 43.861L64.5046 4.07591C58.9533 -1.35864 50.014 -1.35864 44.4627 4.07591L0 43.861V113.445H108.967V43.861Z" fill="url(#paint0_linear_116_12452)"/>
<path id="Path_2" fill-rule="evenodd" clip-rule="evenodd" d="M47.0201 77.0939H46.6993L0 44.7812V113.446C0 113.446 29.4896 94.7114 45.2232 84.0866C45.8019 83.6968 46.409 77.4029 47.0201 77.0939Z" fill="#F0F0F0"/>
<path id="Path_3" fill-rule="evenodd" clip-rule="evenodd" d="M62.1635 77.0939H61.2009C61.8379 77.417 62.4687 83.7311 63.069 84.1411L108.967 113.446V44.7812L62.1635 77.0939Z" fill="#F0F0F0"/>
<path id="Path_4" fill-rule="evenodd" clip-rule="evenodd" d="M108.967 113.446L63.4553 78.2593C57.8939 74.4419 50.5306 74.4218 44.947 78.2049C29.3082 88.8029 0 113.446 0 113.446H108.967Z" fill="#E0E0E0"/>
<path id="Path_5" fill-rule="evenodd" clip-rule="evenodd" d="M70.3152 40.0293C69.531 40.8214 68.2633 40.8214 67.4791 40.0293L56.8626 29.3067V62.9068C56.8626 64.0271 55.966 64.9326 54.8569 64.9326C53.7477 64.9326 52.8511 64.0271 52.8511 62.9068V29.3067L42.2346 40.0293C41.4504 40.8214 40.1827 40.8214 39.3985 40.0293C38.6142 39.2372 38.6142 37.9569 39.3985 37.1648L53.4368 22.9862C53.6213 22.7978 53.844 22.6499 54.0907 22.5466C54.3354 22.4433 54.5961 22.3906 54.8569 22.3906C55.1176 22.3906 55.3784 22.4433 55.6231 22.5466C55.8698 22.6499 56.0924 22.7978 56.2769 22.9862L70.3152 37.1648C71.0995 37.9569 71.0995 39.2372 70.3152 40.0293Z" fill="white"/>
</g>
<g id="checked">
<path id="Oval" d="M96.2579 116C106.139 116 114.149 108.076 114.149 98.3025C114.149 88.5287 106.139 80.6055 96.2579 80.6055C86.3768 80.6055 78.3667 88.5287 78.3667 98.3025C78.3667 108.076 86.3768 116 96.2579 116Z" fill="#00D65B"/>
<path id="Path_6" d="M93.459 108.116C92.9502 108.032 92.4415 107.696 92.1023 107.277L87.8627 101.825C87.0996 100.903 87.2691 99.4768 88.2866 98.722C89.2194 97.9671 90.6608 98.1349 91.424 99.1413L93.7981 102.161L101.938 90.4186C102.617 89.4122 103.973 89.1605 104.991 89.8315C106.008 90.5025 106.263 91.9283 105.584 92.8509L95.7484 107.193C95.3244 107.78 94.6461 108.116 93.9677 108.116C93.7981 108.2 93.6286 108.2 93.459 108.116Z" fill="white"/>
</g>
</g>
<defs>
<linearGradient id="paint0_linear_116_12452" x1="-2.96505e-06" y1="113.445" x2="113.353" y2="4.56643" gradientUnits="userSpaceOnUse">
<stop stop-color="#3093BB"/>
<stop offset="1" stop-color="#82DBFF"/>
</linearGradient>
</defs>
</svg>
